<mxfile host="65bd71144e">
    <diagram id="dQ9iPgGt67F60BsiduWg" name="PÃ¡gina-1">
        <mxGraphModel dx="3496" dy="1320" grid="1" gridSize="10" guides="1" tooltips="1" connect="1" arrows="1" fold="1" page="1" pageScale="1" pageWidth="827" pageHeight="1169" math="0" shadow="0">
            <root>
                <mxCell id="0"/>
                <mxCell id="1" parent="0"/>
                <mxCell id="2" value="" style="shape=image;verticalLabelPosition=bottom;labelBackgroundColor=default;verticalAlign=top;aspect=fixed;imageAspect=0;image=data:image/png,iVBORw0KGgoAAAANSUhEUgAABs0AAAJICAYAAAAq66poAAAABmJLR0QA/wD/AP+gvaeTAAAgAElEQVR4nOzdeZQU1fn/8U/PIiCryiIKuAHKKsswDIPIIosbRNZxQdSQiFHynWhE0J/JGdQkkKiRE6MOissYjcNAoiBqM7Ip2zjDPmIMIIgEDKJsCmEW+veHGdI2vVT3dPetrn6/zvHIdFfdeurW7dvV9dS95fJ4PB4BAAAAAAAAAAAAyasoxXQEAAAAAAAAAAAAgGkkzQAAAAAAAAAAAJD0SJoBAAAAAAAAAAAg6ZE0AwAAAAAAAAAAQNIjaQYAAAAAAAAAAICkR9IMAAAAAAAAAAAASY+kGQAAAAAAAAAAAJIeSTMAAAAAAAAAAAAkPZJmAAAAAAAAAAAASHpppgMAAAAAAAAAAHzP5XKZDgFALRQWFmrcuHGmw0CESJoBAAAAAAAAgI384he/UJ8+fUyHASBMOTk5pkNALZE0AwAAAAAAAAAb6dOnj+6b/4zpMACE4bl780yHgCjgmWYAAAAAAAAAAABIeiTNAAAAAAAAAAAAkPRImgEAAAAAAAAAACDpkTQDAAAAAAAAAABA0iNpBgAAAAAAAAAAgKSXZjoAIBbmzp1rOgQgaY0bN850CAAAAAAAAAAQNpJmcKScnBzTIQBJi6QZAAAAAABIZHsKl/t9vVXOgLjGASD+SJrBsQoLC3Vmm+amwwCSxrHd+0lYAwAAAAAAxyBJBiQfkmZwtLv+mGc6BCBpPDn6btMhAAAAAAAAxFTNKLSahJr33/7+7b2s9/LegpUVan2rZYdaF8D3UkwHAAAAAAAAAACAU+wpXK5WOQNOS4Z5J8X8vR/J+lbLDrYugP8haQYAAAAAAAAAgI89hctP/VfDOxnlO+rMd5lIhVo/0Cg0K2qzLpAMmJ4RAAAAAAAAAAAfgZJKvlMxhivSEV6BRpZZKdvKugBImgEAAAAAAAAAYJl3YqpmKsVw1CZZ5W/aRe/ygpUdal0ATM8IAAAAAAAAAIAlvs8G836ttmWGs5zVZJfv6LJw1gWSESPNAESN1aHddhoCbqdYgEQwduxY0yEACKCoqMh0CEmBfhBIbPfdd5/69OljOoywrFmzRk8++aTpMICExnkSIuWbzAo3UeW7Xs0UiZGW6z3FYrhlB1sXwP+QNAOSXKR3mdgh2RRq7ma++IHomzdvnrKystSqVSvToQD4rz179mjt2rWmw0ga9INA4po3b57Gjh2bcEmzL774QvPmzdOYMWNMhwIkHM6TECkrUxwGWzac9cMtK9KyrbwPgKQZgCjiixdIDvfee6+W/Otj02EA+K+x549VTk6O6TCSCv0gkHgmXZ+jefPmmQ6jVh787XTlv11oOgwgoXCeBAAIF0kzIIl5j8iqGb7tnfjyfd/338GW8X6vRqCkmr95m/3FEaqcYKyU4W+EWqh9CrR8sO0ATrBo7QrTIQD4r6tGdzIdQlKiHwQSy/A+A02HUGt7v95P3wOEifMkAEC4SJoBCMlfIijUFIiBElBWplL0TuAFK8dfss/Kdv0lCK2oTawAAAAAAABwNq4BAYkvxXQAAMzwTfCEGklV819t1Gb9SJ+9VtvtRqI2sQIAAAAAAAAAzGCkGZDk/CXJTAgUh/cILn8jubxHm3m/ZqXsSEUaKwAAAAAAAADAvkiaAUku2PO4TMUR6D3vhJTVZFSw55RFKlaxAgAAAAAAAADMYXpGIAkFGgUVbIrGaG43nGWtTHXoO/IsWqzGG06sABBPviNxE43V+BN9PwEkPvohILEk6meWcyMAAGKPkWYAIuI7LaK/BFyoaRMDLee9rPeUh8HKsRpnOMv6bjvWsQKwp2BTstqJXaaFjfQGArvED8AZAj2n1/d9+hwgcSTKOZkvzo0AAEgsJM2AJGRlesFQy/l7P9Tf4S5n9f1Qy4TzXqT7ZPV9AInL92JrIky/avf4Qkn0+AGYEehCcyL02wD8C/a5TqbPdrLsJwAAJpE0AwAAqAV/o1ODTXcb6r1AdyNbLau28YQTg78LV95l+F7EChRbpPEHunBkdYRJqHIAOFOgPsf3vRqR9B+R9l8AIhfuOZC/db0FO0ey+tnm3AgAgMRD0gwAACAKfC82+Lsj2t/FEu+LHt7vef8dqqxAy0QST7gxRHJRxd+FmUjjD3Zxyvu1WOwHgMTib0rtUFM2RtJ/BLqoTb8DxIfVc7JQ7wdKcIVaj3MjAAASG0kzAACAKHDKhYVQ++F9ESXYxeZAd1Rb2Ua0Yg0m0H4ASHze/Y/v67HYlrdgF7npd4D4iNXnK1jyinMjxEqoUZIAgOgjaQYAAGBBsk9b430ncqiLwnYQKA6r+wEgsZl87pG/i+H0O4D9hXsOw7kREp3L5ZIkeTwew5HAzoK1E9oQnIqkGQAAgAVcPDh9qrFQd0qbvEgU7HhZ2Q8Aicv0ZzpY30i/A9hXJJ9Jzo1gdyQ1oq+mTr3V1G+49e1dVrjrRLIN723RNoDAUkwHAAAAAPvzvshjdTqyQA+pj0VMVpcNth8AEK5Ao5D9PS/J+30A5lg9fwi1HOdGSAQej4ekSIx41613Asqu9V0TW018do4VMI2RZgAAADEQzWfqWCnLd5lA04NFGo/31D3hrhtO+eHE72/7ofYz1vsBwDx/n/Oa132X8e5zrPYf4fRD3uUGigVAaIE+nzXvhbOu72cy0nMkzo2QCHxHE/kbdYTosVLf/hJtLpdLLpcr4Ig1f6PCQm0rVEIs0vVpQ0gGLg8pZTiQy+VSYWGh7pv/jOlQgKTx5Oi7lZOTw51KDkf/CtgP/W980Q8Ciem5e/M0vM9AFRYWaty4cabDCcvcuXOVk5OjhWuW6a4/5pkOB0goiXqeVHO+Udv+yjcxU/Nv3/dgXTiJsEDvRXNZq8v7xmt1+7Sh8EXr8wtjihhpBgAAAAAAAACARd6JI+9RYnZlJT5GkQHfI2kGAAAAAAAAAEAceCenfP9tMvlm98QfEC8kzeBo12X1Nx0CAAAAAAAAAPyAvykWAZhH0gyOln/vdNMhAElj7ty5pkMAAAAAAAB+1DyTiuRMdHjXo78RWrWp72Dr+r7n8Xj8Lh/OqLFA2/MtgzaEZEHSDIgQD7tEPARrZ7RBAAAAAAAQiL+kB2onWB0Gq28rSbZItxNseauv13Y5wElImgFBkJSwn0B32Xi/Z/V4RXIHTm224b0t2hYAAAAAAIBzhRq5BcCeSJoBQfBlZl/eibKaB6Xa+XhxZw4AAAAAAEDy4NoPkJhImgFB+I4GYs5ee7NyvPyNSvNOvAUrx9+w+kDbCnViFOn6tEEAAAAAAAAAiA2SZoBFJNDsJdTUirE+XqESaN5JuFDxWlk/0HIAAAAAAAAAgOggaQYgIYVKMNmNlfhIggEAAAAAAACAOSTNACQd7+SU779NJt/snvgDAAAAAAAAACcjaQYgaQWaPhFAaM/dm2c6BAD/dWz3ftMhJCX6QSCx9GzXyXQItdazXSf6HiBMnCcBAMJF0gywyOPxnJoKEOaFeqZZbY5XsHV93/N4PH6XD2fUWKDt+ZZBG4SdXJ81IGZl+z6/DzAhWDu0Wxudu3uu6RCSEv0gTEukfgrR0fKcZrr+nAExK592A6sSqf/hPOmHHn74YT322GOmw0AUBTqmHGsgciTNgCD8JS1gVrBjEOx4WUmyRbqdYMtbfb22ywGJxm4/phFaoBsJvN+zejwjucmgNtvw3hZtD3ZBW4w++ikgNNpXbND/INmFStD4vp/ICZ2HH374tNci2Rd/deKv3ESuKyBRkTQD4FihRm4BMIfPY+LyvgBU8yxIOx9Pbj6AXdEWY4d+CgiM9hVb9D9IVuEmdRI5CVQTeyySWf7KS+S6AhIVSTMAjsUJP2BfvnexMu1oYrNyPP3dbe19QSlYOf5GDgfaVqi+P9L1aaOINvrB+KKfAr5H3xN/9D8wzd8IJt/XA4148k4Qeb9WkzDy939v/sr1HT0Vanu+5dhZoH0JNMrOu06ClRmsrgJtH0DkSJoBAACjuHiTWEJNGRTr4xnqwpD3xaVQ8VpZP9ByQDTRxqKLfoo2BGtoN9FH/0M7sptAUwAGSuT4Gz0V7jOzAiWIrJQRaPlEmKIw0L74Sy7W8FfX3oLVgZW/AUSGpBkAAAAsC3XhxG6sxMfFHcBZ6KcAmEL/g0QSbASalQSV3ZNYJgSqU6vPJgv1PokwID5ImgEAACAuvC+6+P7b5EUlu1/QAhA/9FMATKH/QbwFGyVmZdpAnC7W9cXxAOIjxXQAAAAASC4ej+fUfwBgR/RTAEyh/4EJifoMMTvzrtNAz3yLVvkAoouRZgAAwCjvB53D/kI9q6M2xzPYur7v1VxM8l0+nAtMgbbnWwZtFLFGG4su+inAGtpN9NH/wG4CJWp8X/cdYeb9WqBlAwlVhu8zvcIp286C1alvPXg/68x72UjKD/Q+gMi5PNy6AgdyuVwqLCzUuHHjTIdiie+DcxOtfJhj9dh6Lxer9jB37lzl5OTQzhwu0fpXmMd3UOzR/8YX/aDz0E8lj0T9/NLPOxf9T+wl6ucnUfsrq89DA5wsUT+/OKWIkWZAFPk74Y3XSXCynGwHuqsuFtuoTbm+ZcTi+ES6De87AZ3eXgCYEeqOZAAwjX4KgCn0PwAA2BtJMyDG4nUCnGwn2rHcXzsm4axItjYAwL7ojwDYHf0UAFPof+BkjDID4AQkzYAQAt0F5jvdXaDRZYFGA/mWZ2WbVuIMtJ1kEO6xsrK8v+W8y/L3ur+YAr1uddtWyg2nDTDaDAAAAAAAAAB+KMV0AIDd1TxAN1AiIlDiJFgyzLfMYMsE2kYw/spwmpqET82+Wqk377+t1rOVugxVRrCEV6ySnMnQBgAAAAAAAAAgmhhpBoQQKpkRq4REMo4UC0ck9W5lVF88BRvB5v0eSS8AAAAAAAAAiD2SZkAQJqc8JFESH/Go50BTIHKMAQAAAAAAAMA+mJ4RAGIokoSrdzKNxBoAAAAAAAAAxAdJMyAI74SHlaRHqOV937e6TLgj3MKN2wn87XOwhJPVeo5GXfomzqJ9jEO9H+pZbQAAAAAAAAAApmcEQgqUVLD6eqi/rS4TSjTKSARWEmHRft3772DPGgs2Qiyc4xNpQitZ2gAQjlgniElAJy+rx957OdoLTKAfhK9gxyzU8aTvg1X0PcmNvgLJKtDjOUxt11Q8QKIjaQYkkGCjkfgSjB3ferdLXdf8sAj3JIgfI0hE/tptvNoyn5nvBRuNG+1t1KbcQM8jjWaskW4j0n4bkOgHrYpFXxVqZL8d4onHBWf6vuRE32MN50m13wZ9BRJNLK4VBfuO53MBxA9JMyCB8AVpRrzrPZztRWNUIpCo4tWW+cz8UCzrw44Xl6ygjcAU+sEfCnRxv7YXmiK9uByreHzjCvR3rCVKu0D00fcExnnS6RLxOAKhxDKJZWWGKgCxRdIMAAAYEejOPN9pWgLd2RzoLlbf8qxs00qcoZ4lmMzCPZZWlve3nHdZ/l73F1Og161u20q54bQR7qKGN/rB+ArVd0R6x3i01qttPJG0h0BxhCrbyvZ8t03fZx/0PfHFeRJ9hUnBPnve7/k7PoFGMftbL5mEap+B6idQfVsZSRaoj7DS3wIIH0kzAABgRKg778OZ5sbKnbL+frCH+4PcKRdvaiPUD+lQx9LqcbB6YShYGVbKjPZFGdoIwkE/aIa//Y+0bqJRp5HGE+yiWTT7Wiuc0C6SCX1P7HCeFFyiHEen8W1vNX+Het03URMooZ6MibNgwq3vUH1wsPq28jeA8JE0AwAARoQ6gY/Vjy9+ONROJMfFbndABrszO9nvnEV80Q/aj93qJtSIjNqsj+RF3xM7nCchkdT2RgmEJ1C9hUpoWy0HQPSQNAMAAHFn8i5TfuDbQzyOQ6A7X2kDsAP6QXuyW93UNh677Q/Mo+9JDJwnIdZqMyKJNhK+aI4Ao/6B2EsxHQAAAAAQbZFcDPT+AcqPUQAA4FScJyFaknHUk/fUq6bZJQ7AaRhpBiAoK3PUwxyrx8d7OY4p7MDfFC/hLO9vCotQU8YE2ma4z50JJ+5kEO50PVaPQzTq2rsMj8cT9TYQ6O7sYHHTB6MG/WD01Wb/Il03WL2biCfc9a0eT/o+56DviS/OkwK/7w99RfxEmvjxXS9Zj5W/+rPy2Y72dgP1DQBqh6QZEGWJeJKXSDEHml89FtuoTbmBpj2JZqyRbiPUDxkgXgK1P6uvW5n7Pdz54SPZbrII9SMwFq8HmsIk2HKRtBPfbYR7jGkjiBT9YPSF01eFu1/hHq9YxRNp+wh3uVASqV3gh+h7oo/zpMAS6Tg6UTjtIdj7odZLRuH2fbXpKyM9bgAiQ9IMQEJ+ocYyZjsm4axIxOMI2EWwu/H4bJlTmzudYynSmw8S6SYVJB/6QYRC34dYoO+JHOdJAADEBkkzIIRAJ6KhTlADjQLyt3yw0VOhtl9zQuo9BDvckUehYk0U4dSV1eX9Leddlr/X/cUU6HWr27ZSbjjHMdIfMoBT8Tmwp3gfl3C2F4075gE7oX3CCvo+RBvtI3KcJwEAEBsppgMA7Mw7CVHzXw3f1/wlQfwlPnxf8/deoO372060E1zB4rGTmoRPsHoMVldWlg+0nK9QZURyXGsrUY4jAAAAAAAAANgFI82ACEWS5IjFCC7fRF44DxlOZNG6c83kqLpgI9iS4RgCAAAAAAAAgJ2QNAMiEOl0hiQ/7CcexyTQFIi0BwAAAAAAAACwD6ZnBBzGd+QZzIpk+kWOIQAAAAAAAADEH0kzIAjvhIf3lHm+rwdbJ1A5tS0rVoLFY2fh1lWwYxKq3NrEFs62wykz3Ljj1Z4AAAAAAAAAIFEwPSMQQqCkgpWETCTLB0qcWS0vkmSI77J2TqSEW+/ReD3Q8Qm2XKg6DbYfkSa0Euk4AgiN5La9WT0+3stxTBFLgaaDhrPUHGenHe9A++O0/XQCO32X2SkW/BDnSUBi43wDyY6kGWylpKREa9as0aFDh9S8eXMNGDBAHTt2NB1WzFlNlEVzG7HenpPE4/hEouYEJtwvd36MAP75+2zE+vOSSJ/HYKNxo72N2pQb6Lmj0Yw10m1E2m8jedA2aica52yBLhLV5tjE8lwy2A1dvsvF61m+vpx40Q3xkyjnSpwn1X4bnCclpkDfl04+jpxvcL4B5yNpBlvYuHGjJkyYoC1btig9PV0pKSmqrq5WVVWVrrrqKr344otq06aN6TBjJpodeiQj4xBcvOuuNqMEY7UOkKziNSVuIollzHa8uGRFIh5HwKlqe+Ep2ufSsb54Y8cLROHOugEEk2hth/Ok0yXaMUTtJMvx5nzDPM43EEskzWBcaWmp+vfvr8rKSkk69f8aH3zwgTIzM1VaWqrWrVubCBEAEGWhniFY87f3iXmw5z76KyvQ3XCh7sALNk1MuDGEEqr8RBGqXsI9luEcW98yfGMK9LrVbVspN5zjyF3U8OavnwrWngL1Zf7aKe3rh6zWo7++yvv1YHeEW70LO9B2Q8VmRbDvuEjaVqjlrY4oCKeeEvW7MJHU9ns7mmVZ/awk8rkS50mcJ5nm77iG+31m9fsl1Peov+05CecbnG/AGVJMB4DkVlVVpVtuuUUVFRWqqqryu0xlZaW++eYb/exnP4tzdACAWPN4PAF/iHn/7X3iHeyHm+9Jte+y4ZbjL55wYgiHv/LtqOZCRjh1Gu6xDLScr1BlBLuQE6uLb4lyHGGedz/l3VYC9WXeFzoCrev9Hv4nknqUwvscB9qG9wXgQN8Z3uv6XuDx93oogdarTdsKtLz3e95/B9rnYOUE2z6iJxrf29EqK9xjnAjfsZwnBZcIx9BpIulXQ32PBPt+8VdOsuB84/T94XwDiYqRZjDqgw8+0LZt20IuV1lZqXfeeUd79uxRq1at4hAZAMA0Tl7tKZLj4m8dk3f2Bbpw5PuDizaIWIt2gouEWfh3S4dbZ94XnfxdvAm0TiTbi3U/GenNHb589yfU/nFnt/1FmsyyWpb3RV6n4TwJThCL9hfs+zMRcb5hHecbSESMNINRa9euVZ06dcJaHgAAJD7vO/ti9aM52A8u7iyEad53vkbrR324dwg7UTif7Wgfg2j2LfG4AzrceKO1f/TBzmP1mPq+l+z9VTCcJ8EURuBYw/mGdZxvIBGRNINR33zzjeWOKy0tTV9//XWMIwIAAE7gPSVIuOv4/huIpWi3NRJn4Qv3GFi5Sz7RjkG07gKP9XaR+Lh4aQ+cJ8EEp4wyixTnG5xvIHEwPSOMatCggeVlq6qq1KxZsxhGAwCIN6vTWkRrSphg5fi+52/6h1hOSxPtESfxEm69BNpPK/Vdm9iC3eEZyVQpgX7AhorbyVNSITzB+qGaf/smwPwt5/2699/JfFHKV6D6slKH/t6LdBtWy/JXXiC+zwaxUl44bStQPJG2LattF7ETre/tYO8FKq8237+hYrErzpMCv+8P50nRZ7VfD/W6lfJ9E6vJdjw53+B8A85B0gxGrFu3TrNnz9Zf/vIXVVRUWF6vT58+MYwqekyeGCTbSUmys3q8vZejjcBOAv2Ytrqsv9fD/Tsa64azjWisZ0I49Rat173/DvWjx8p7wbbtvY1ILuJZ3QZQo7b9SW3aulOF20+Fei2cviWc16xuJ1h5vv+3EmckbSvUhatIygyn3hEb0freDnedSI5tovRtnCcFlijH0MnC6dcDvW61XQVrb065oYfzDc434HxMz4i4+c9//qOioiINGTJEGRkZWrFihX71q1/psssuU1pa8Pxtenq6Ro4cqZYtW8YpWntLtLvroqlm373/i9U2ollGLGL1/dFidRveywOIPX/9VjL34+HwrSu7/LCJtB+1234AgD/efS/9FeKBc6XIcJ4EIJFxvgE7Y6QZYm7r1q0qKCjQ7NmzdezYMY0YMULFxcW66qqr5HK5dO2116pv3746ceKEKisrT1s/PT1d5557rp555hkD0dsTXyaxrYNolx2vk3/aBRJJMrXXZNrXaIt33YWzvWjcLQ8AdkRfhXijzUWG8yREwmQ9c4zhjfYAO2OkGWLixIkTeuWVV5SZmalOnTrprbfe0q9+9Svt3btXc+fO1eDBg08lErp27aqysjJlZmZKklJTU1WnTh2lpKTI5XJp+PDhKisrU4sWLeK+H6FGC1m5Cy4aZVgtM9nvxAtUl95/W6n7UMfIu6xQxy9QwizcbVspN5x2wWgzAAAAAAAAAPghRpohqvbu3atnn31Ws2fP1sGDBzV69Gj94Q9/UP/+/YOud+mll2rlypX65JNPtHr1an399dc677zz1K9fP11wwQVxij58/hIW4dwpEWh6vdqWkQx85zu2Upe+CaVQywdazleoMqyUGe3h6MnaLgAAAAAAAAAgUiTNEBXr1q3T7NmzVVBQoEaNGumOO+7QPffco9atW4dVTocOHdShQ4cYRRm+mmSMb4KmRrQSESQ0whet6R5M1n2gBFywNgcAAAAAAAAAiA2SZohYRUWF3nrrLc2aNUurVq1S9+7dNWvWLN16662qV6+e6fBiLpojeUiKmBOPug80iozjDgAAAAAAAAD2QdIMYTt06JCeffZZ/elPf9JXX32lUaNGaeXKlerbt6/p0GLC39R/gFXeI8esth/aHAAAAAAAAADEH0kzWPbFF1/oqaee0vPPP6+UlBTdddddmjx5slq1amU6NCP8TaMX7nKB3gsnUWI1DqcLd1pDq3Ufjfr1TZxF+7gHGsUWLG6ScqiNnJwc5eTkmA4DAIyhHwRgQrL/5gNgXrSfx47I1fZYBFqfYwyQNIMFW7Zs0dNPP62CggI1btxY9913n37xi1+oSZMmpkOLm0BfFlZfD5W8qW08yfRlFkldRvP4BUvKef8d6hgF249IE1rJ3C4QP4WFhaZDAACj6AeBxJadnW06hLBlZ2fT9wCIiNUEiF0SJXaJI5ja3ADtW0409jXYTfp2r0vArkiaIaCVK1dq5syZWrRokdq2basZM2Zo0qRJqlu3runQkkKwuwj50ouvaJ0QRVskUz9KjDJD7YwbN850CABgFP0ggHhr1aoVfQ8A2IjvzdXRuCE+WvHEonwg2ZA0ww94PB4tWrRIjz32mEpKSnTllVdqwYIFuu6665gKIs74crOPeB+LcKdpjGX5AJBMNm/erFWrVunQoUM6++yzdeWVV6pDhw6mwwIAIC4OHz6sp59+Wq+99pp27Nghj8ejCy+8UDfeeKNyc3N1zjnnmA4RQAR8b5wNNIOO1eWsbi+cbfpbNlGuXfiO6rK6rzXr+Hs91LpWWInJX/kASJrhvzwejxYuXKhHHnlE69ev1/XXX681a9YoKyvLdGgAAAAx9emnn+q2225TSUmJ0tPTlZKSourqalVVVWngwIF68cUXdeGFF5oOEwCAmNm6dauGDh2qf//736qqqjr1+rZt2zRjxgw9++yzevfdd5WRkWEwSgCRCDYqyvvvUI+qiHSax0DbDPaM9kQV7r7W8E5u+ft3qGMRbIakYMc80N9AsksxHQDMqkmWZWZm6kc/+pHOOusslZSUaMGCBSTMAACIoXXr1unmm29W8+bN5XK51KBBAw0aNEjz5s1L6B+Kiebjjz9WZmam1q1bJ0mqrKzUiRMnTl0wXLlypTIyMrRz506TYQKIwLx58/TSSy+ZDgOwvW+//VaDBw8+LWFWo7KyUgcPHtSwYcN04MABAxHa144dO/T888/r0Ucf1VNPPaXVq1dzHgfHqHkcRCyTKE5M0MSi3kKV6fF4fvBfPGICnIykWZKqSZb16tVLP/rRj3TuueeqtLRUxcXF6tWrl+nwAABwtCeeeEKZmZmaN2+evvrqK0nSd999pxUrVmjcuHG64YYbdOLECcNROp/H49Gtt96qY8eO+b1IKH1/ofDIkSOaOHFinKMDUFt//vOftWzZMtNhALb39NNP68CBAwG/CyWpurpaR48e1R/+8Ic4RmZf+/fv18iRI9WuXTvdfffd+s1vfqOpU+nFNXsAACAASURBVKeqb9++uuyyy7RmzRrTIQK1UjP6KFASJhpqynZaMidUAitc0TgW0Y4JcDqSZknG4/Fo/vz56tq1q2644QZdfPHF2rRpkxYuXMg0CwAAxMG8efM0ZcoUnTx5UpWVlT947+TJk/J4PHrnnXc0efJkQxEmj3Xr1mnDhg1BLxJK3yfOli1bpm3btsUpMgC19d1332nNmjUaNmyY6VAA25s7d+5p5yT+VFZWau7cuXGIyN4OHDigrKwsLVq0SB6PR1VVVTpx4oQqKiokfT/6rH///lq+fLnZQIEEkehJnGBTL9oxGWjHmAC74ZlmSeT999/Xgw8+qPXr12vs2LF644031KlTJ9NhxQx3dgHxxWcOCM3j8ei+++4LOad9VVWV5syZoylTpqh9+/ZxjDC5rF69Wunp6ZYuFKampmrVqlVq165dHCIDUFtLly5VZWWlhgwZYjoUwPY+++wzy8t+8cUXOnnypFJSkvce7ClTpmjPnj0Bzx+qq6vl8Xh08803a8eOHapXr16cIwT+p2YkV82/vf+uec3KcpFsL9Q2rcRhV/5ir/l3qP3yXSeUSI9FqJiiVT7gRCTNkkBpaakeeughvf/++xo8eLBKS0vVo0cP02HF3FNPPaWnnnrKdBgAAJxSXl6uL774wtKyaWlpWrBgge6///4YR5W8vvnmG8sX/VJTU/X111/HOCIA0eJ2u9W9e3c1b97cdCiA7XGx1LojR47oL3/5S8hR6idPntSXX36pRYsWacyYMXGKDvDPX5Ik0uWsJHusrmc1DrsJFV+49eubdAv172DrB9peqPq3e50D8UbSzME+/fRT/epXv9K8efOUmZmppUuXauDAgabDigs6ewCAHW3fvj2s5Xfs2BGjSCBJ55xzjk6ePGlp2erqajVt2jTGEQGIFrfbrXHjxpkOA0gI7dq1U2lpqaVlL7zwwqQeZbZ+/fqQCbMa6enpWr16NUkzOFKgZDvX4wA4AUkzB9qzZ48effRRvfjii2rXrp0KCws1ZswY7h4DkkxlZaXWr1+v3bt3q27duurRo4fOP/9802EBSS3ci0zJfFEqHrKzsy1NzSh9nzTr27dvjCMCEA07d+7U9u3beZ4ZYFGPHj20fv16VVdXB10uPT1dOTk5cYrKnsIZdV5dXc0odTgWyTEATsaVGAc5evSoHnzwQbVr106LFy/Wiy++qPLyco0dO5aEGZBETp48qSeeeELNmzdXVlaWxo0bpxEjRqhVq1bq37+/ysvLTYcIJK22bdvGdHmEp0ePHsrIyFBaWvD7yNLT09W+fXs1atQoTpEBqI333ntPDRs2VJ8+fUyHAtjawYMHNXHiRM2ePVtnnnlm0O/DtLQ0NWnSJOmnjQ5n1HlqaqqaNWsWw2gAAEAskDRzgJMnT+qll17SpZdeqvz8fP3ud7/Tp59+qltvvZU71IEkc/LkSd1444164IEHdOjQodPeX716tTIyMvTBBx8YiA5Ap06ddNFFF1n6fq6urtaIESPiEFXycrlcevXVV1W/fn2lp6f7XSY9PV2NGzfW8ePH1a1bNy1ZsiTOUQIIl9vt1qBBgwJ+rgFICxcuVJcuXbRo0SK9/PLLWrdundq0aaPU1NTTlk1LS1Pz5s21ZMkSnXXWWQaitY+ePXta7lsqKysZpQ4AQAIio5LgPvroI/Xt21c/+clPNHjwYP3jH//QL37xC51xxhmmQwPCsmvXLs2ZM0fTp0/Xk08+qRUrVlh+zgz+Jz8/X/Pnzw9Yd1VVVaqqqtKYMWP07bffxjk6AJI0a9askNOZpKamavLkybrkkkviFFXyuuyyy1RWVnZqREpaWprq1Klz6qLhoEGDtH79epWXl2vgwIEaMmSIcnNzLU/rCCC+KisrtXz5cqZmBAL48ssvNWbMGI0YMULZ2dn6+OOPNWHCBLVr105btmzR448/rl69eqlBgwY688wz1b17dz322GP65JNP1KVLF9PhG9egQQPdcccdIRNnqampat26ta699to4RQYAAKLF5WES2oS0Z88ePfTQQ/rLX/6iQYMG6cknn1TXrl1NhwWE7eDBg7r77rtVWFiolJQUpaWlyePxqKKiQhdccIFefPFFDRo0yHSYCeOCCy7Q7t27Qy6XmpqqZ555RnfeeWccogLg67nnntPPf/5zuVyuHyRfUlNTVV1drZtuukkFBQUhpw1EdH3yySdauXKlvvnmGzVr1kz9+vVTu3btfrBMQUGB7r77bnXs2FFvvPGGLr74YkPRAvBnxYoVGjBggLZv386NB4AXj8ejV199Vffee6+aNGmi/Px8DR482HRYCengwYPq06ePPvvsM7830aSlpSklJUXLli1Tdna2gQjhBC6XS4WFhRo3bpzpUACEic9vwitipFmCOXbsmPLy8tS+fXutXbtWhYWFev/990mYISEdOXJEV1xxhebPny+Px6Pq6mqdOHFCFRUVkr5PDg8dOlQLFy40HGli2LNnj6WEmfT9j+Zly5bFOCIAgdx111269tpr1a1bN7Vu3Vp16tRR06ZNde211+rdd9/V66+/TsLMgA4dOuinP/2ppk6dqh//+MenJcwkacKECSorK1NFRYW6d++uN954w0CkAAJxu91q27YtCTPAy44dOzR48GBNnDhR48eP1+bNm0mY1cJZZ52lNWvWKCcnRykpKUpJSVGdOnVOnbt17txZJSUlJMwAAEhQXI1JIPPnz1dubq6+++47PfbYY5o8eTLTMCKh/frXv9a2bdsCTnFVXV0tl8ulCRMmaNeuXWrcuHGcI0ws//73vy0ve/LkSe3ZsyeG0QAIZt++fXr33Xf14osvavz48abDQZguu+wyrV27VlOnTtVNN92kd955R88995zOPPNM06EBSc/tdjM1I/BfVVVVeuKJJ07deLt69Wr16tXLdFiOcNZZZ+nVV1/VjBkztGLFCt17770aPXq0fvrTn6p79+6mw4ND/PGPf1RRUZHpMAAg6TDSLAHs3LlT1113ncaOHashQ4bon//8p+677z4SZkhoJ06c0PPPPx/ymTAej0dHjx7VvHnz4hRZ4mrUqJHlZV0ul84+++wYRgMgmOeee05NmjTRmDFjTIeCCNWtW1ezZs3S3//+dy1atEgZGRnavHmz6bCApHbgwAFt3LiRpBkgaePGjcrKytL06dM1depUlZaWkjCLgfPPP18333yzjhw5oqysLBJmiJoxY8aoVatWpsMAEIExY8aodevWpsNALTDSzMYqKyv1zDPP6OGHH1bLli21ePFiplCAY2zdulXHjh2ztKzL5dLq1as1ceLEGEeV2C666CI1atRIR44cCblsWlqaMjIy4hAVAF+VlZV64YUXNGnSJNWtW9d0OKilG264QT169NAtt9yi3r17a8aMGcrNzTUdFpCU3G630tLSNGDAANOhAMYcP35c06dP1+OPP67s7GytX79el112memwHM/lcsnj8ZgOAw7CCDMAMIeRZjb14Ycfqnv37nrwwQf1y1/+Ulu2bCFhBkf5+uuvLS9bVVWlr776KobROENaWpomTpyo9PT0kMuePHlSBQUFevvtt+MQGQBvc+fO1f79+zVp0iTToSBK2rRpo2XLlmnq1Kn65S9/qdGjR+vgwYOmwwKSjtvtVnZ2tho2bGg6FMCIFStWqFu3bnruuef0xBNPaPny5STM4iQlJUUnT540HQYAAIgCkmY2880332jSpEnq37+/WrRooQ0bNigvL0916tQxHRoQVU2bNrW8bFpamlq0aBHDaJzj17/+tS644IKgiTOXy6Vp06apU6dOGj58uK6++mpt2bIljlECye3Pf/6zRo4cyXQrDpOWlqa8vDwVFxdr7dq16tatm1atWmU6LCBpeDwevf/++0zNiKR06NAhTZo0SQMHDlT79u1VXl6u3NxcpaRwySdeGGkGAIBzcAZlI6+99prat2+vRYsWqaioSEuWLNGll15qOiwgJjp16qQGDRpYWtbj8eiKK66IcUTO0KRJE3344YcaOHCgJOmMM85QWlqazjjjDKWmpqp+/frKz8/XY489pjfffFNr1qzR0aNH1a1bN40bN06ff/654T0AnG3Dhg1as2aNJk+ebDoUxMjAgQO1ceNGdenSRQMGDFBeXh53ngNxsGnTJu3bt4+kGZJOUVGRLr30Ui1YsEBz587VwoULuTHHAEaaAQDgHCTNbODLL7/UyJEjdeutt+rGG2/UJ598otGjR5sOC4ip9PR03XPPPUpLC/5oxZSUFJ111lkaNWpUnCJLfOeee67cbrfKysr061//WnfccYfuuusuzZkzR//617/005/+9NSyWVlZWrlypd544w2tW7dOHTt21LRp0yw9Fw1A+J5++ml16dJFV155pelQEEPNmjXTwoUL9fjjj+t3v/udhgwZor1795oOC3A0t9utFi1aqFu3bqZDAeJi7969GjVqlHJycjRs2DB9/PHHGjNmjOmwkhZJMwAAnMPlYfy4UUVFRbr77rvVoEEDzZkzR4MGDTIdEhA33333na688kpt2bJFlZWVp72fmpoql8uld999l2f6xUFFRYWeffZZ5eXlKS0tTQ8//LClxCYAa7799lu1bNlSM2bM0D333GM6HMRJWVmZbrrpJh0+fFivvPKKrrnmGtMhAY40aNAgtWrVSgUFBaZDAWLK4/Ho+eef15QpU9SsWTPl5+frqquuMh1W0jv77LP1u9/9jmfWAgCQ+IoYaWbI/v37NWbMGOXk5GjUqFHavHkzCTMknfr162vFihW64447lJaWppSUFNWpU+dUkubSSy/Vhx9+SMIsTs444wzl5uZq27ZtuvHGGzVlyhR1795dixYtMh0a4AhFRUWqqKhQTk6O6VAQRxkZGVq/fr2GDh2q6667Trm5uaqoqDAdFuAo3333nVavXs3UjHC8bdu2adCgQbrnnnt0++23a9OmTSTMbIKRZgAAOAdJMwOKiorUuXNnlZWVqbi4WPn5+WrYsKHpsAAjGjRooPz8fO3Zs0evv/66MjIyNH78eJWWlqq8vFxZWVmmQ0w6TZs21Z/+9CeVl5erXbt2Gj58uPr166dVq1aZDg1IaC+//LJuuOEGNW3a1HQoiLOGDRvqL3/5i15++WXNmTNHffv21Y4dO0yHBTjGsmXLVFFRoSFDhpgOBYiJyspKzZw5U126dNGhQ4e0du1azZo1S/Xr1zcdGv7L5XKJiZwAAHAGkmZxdODAAY0bN+7U6LItW7ZwVxjwXy1atFBOTo6OHz+uc889VxkZGXK5XKbDSmrt27fX3/72N61du1ZnnHGGrrjiCg0ZMkQbNmwwHRqQcHbu3KkPP/xQt99+u+lQYNCECRNUVlamqqoq9ejRQ6+//rrpkABHcLvd6t69u5o3b246FCDq1qxZo+7du2v69OmaPn26ysrK1LNnT9NhwQcjzQAAcA6SZnGydOlSdevWTSUlJVq8eLGee+45RpcBftStW1fHjx83HQa8ZGZmasmSJSouLtbBgwfVs2dPjRs3Ttu3bzcdGpAwXnzxRbVo0YJRENBll12mNWvW6Pbbb9f48eM1YcIEfffdd6bDAhKa2+1makY4zrFjxzRt2jT169dPTZs21caNGzV16lSlpqaaDg1+kDQDAMA5SJrFWFVVlfLy8jR06FD17t1bGzZs4PlMQBD16tUjaWZTgwcPVmlpqQoLC7Vp0yZ17NhRkyZN0t69e02HBtjayZMnVVBQoNtuu+3UMxuR3OrWratZs2Zp/vz5evvtt5WZmamPP/7YdFhAQtq5c6e2bdtG0gyO8u6776pjx47Kz8/XM888o2XLlql9+/amw0IQTM8IAIBzkDSLoc8//1wDBgzQ73//ez3xxBOaP3++zj77bNNhAbZWr149/ec//zEdBgJwuVwaO3asPvnkE7322mtavHix2rVrp2nTpungwYOmwwNsaenSpdq9e7duu+0206HAZkaOHKmNGzeqSZMmyszM1CuvvGI6JCDhvPfee6pfvz7PwYUjHDx4UJMmTdK1116rLl266OOPP9add97JtPUJgJFmAAA4B0mzGJk3b566d++uQ4cOqaSkRLm5uaZDAhICI80SQ0pKisaOHautW7dq+vTpeuGFF3TJJZfo0Ucf1ZEjR0yHB9hKQUGBevfurQ4dOpgOBTbUpk0brVixQlOmTNGPf/xjpmsEwuR2u3XVVVepTp06pkMBaqWoqEiXXnqpFi5cqPnz52vhwoU677zzTIcFixhpBgCAc5A0i7Ljx48rNzdX48aN09ixY/XRRx+pS5cupsMCEgbPNEss9erV0/33368dO3bo//7v//TEE0/ooosu0m9+8xsdPXrUdHiAcSdOnNCCBQt00003mQ4FNpaWlqa8vDy99dZbWrRokTIyMlReXm46LMD2qqqqtHz5cqZmRELbtWuXrr76auXk5GjkyJH6xz/+oVGjRpkOC2FipBkAAM5B0iyKNm3apMsvv1x//etftWDBAuXn5+vMM880HRaQUJieMTE1btxYeXl5+uKLL/TAAw/o8ccf14UXXqi8vDwdPnzYdHiAMcXFxTpy5IhGjhxpOhQkgOuvv14bN27UOeeco8zMTL3wwgumQwJsbfXq1Tp8+DBJMySkkydPavbs2eratat27NihJUuWKD8/X40aNTIdGiJA0gwAAOcgaRYlr7/+urKzs3X++edr48aNuv76602HBCQkpmdMbA0bNtTUqVO1e/duPfDAA5o1a5YuueQSkmdIWvPnz1dWVpbatGljOhQkiNatW2v58uV64IEHNGnSJKZrBIJwu9266KKLdMkll5gOBQhLeXm5+vbtq8mTJ+vuu+9WeXm5Bg4caDos1ALTMwIA4BwkzWqpqqpK06ZN0y233KLx48dr8eLFzDsO1AJJM2eoSZ59/vnnmjJlyg+SZzzzDMmisrJSCxYs0OjRo02HggRTM13jm2++qUWLFqlXr15M1wj44Xa7dc0115gOA7CssrJSM2fOVEZGhk6cOKGSkhLNmDGDZ/I5ACPNAABwDpJmtXDgwAENGzZMs2bN0ssvv6z8/Hylp6ebDgtIaHXr1mV6Rgdp1KiRpk6dqu3bt2vSpEl68skn1bZtW82cOZPkGRxvyZIl+uabb5iaEREbPny4Nm7cqCZNmqhPnz567bXXTIcE2MaBAwe0YcMGpmZEwli9erW6deumRx55RNOnT1dpaam6d+9uOixECSPNAABwDpJmEVq3bp0yMjL0+eef66OPPtJtt91mOiTAERhp5kznnHOOfvOb32jnzp36yU9+ot/+9re64IIL9PDDD+urr74yHR4QE/Pnz1evXr108cUXmw4FCax169b64IMPdM899+jWW2/VhAkTdOzYMdNhAcYtXrxYqampGjBggOlQgKCOHDmi3Nxc9evXT23atNHWrVs1depUpaammg4NUcRIMwAAnIOkWQQKCgrUr18/dezYUaWlperSpYvpkADHIGnmbOecc45++9vfas+ePcrLy9OLL76o1q1ba9KkSdq9e7fp8ICoqa6u1ltvvcXUjIiKtLQ0zZgxQ/Pnz9fChQvVt29fbd++3XRYgFFut1t9+/ZVo0aNTIcCBLRo0SJ16dJFr776qp599lm9++67uuCCC0yHhRggaQYAgHOQNAtDRUWFfvrTn+r222/X/fffr7fffltnnXWW6bAAR2F6xuTQsGFD5ebmaufOnZo9e7aWLl2qtm3basKECfrkk09MhwfU2qpVq/TVV1+RNENUjRw5UuvXr1dKSooyMjL05ptvmg4JMMLj8ai4uJipGWFb//73vzVhwgRdf/316t27tz799FPdeeedpsNCDDE9IwAAzkHSzKJDhw7pmmuu0RtvvKE333xTjzzyiFJSqD4g2hhpllzq1KmjCRMmaOvWrXrhhRdUVlamzp07a/jw4SopKTEdHhCxxYsXq23btmrbtq3pUOAwF110kVavXq3bbrtNo0aNUm5uriorK02HBcTV5s2btW/fPpJmsKWioiJ17txZS5Ys0d///nfNnTtXzZo1Mx0WYiwlJYWkGQAADkHWx4Jdu3apb9+++uSTT7R8+XKNGDHCdEiAY9WrV08nTpxgaoskk56ergkTJqi8vFxz587Vvn37lJWVpWHDhmnJkiWmwwPCVlxcrCFDhpgOAw5Vp04dzZo1SwUFBZozZ46uuuoq7du3z3RYQNy43W41a9ZMl19+uelQgFN27typoUOH6sYbb9SoUaP0j3/8QzfccIPpsBAnLpeL37AAADgESbMQSktLlZWVpdTUVK1du1Y9e/Y0HRLgaPXq1ZMkpmhMUikpKRo9erTKysrkdrtVWVmpwYMH6/LLL9dLL72kEydOmA4RCOnQoUNat26dBg8ebDoUONz48eNVWlqqAwcO6PLLL9f7779vOiQgLtxut4YNG8bMH7CFqqoqzZo1S127dtW+ffu0atUq5efnq2HDhqZDQxwx0gwAAOfgV0YQb775pgYMGKCuXbvqww8/VJs2bUyHBDhe/fr1JUnffvut4Uhg2tChQ7V06VJt2LBBWVlZuvvuu9WmTRtNmzZNe/fuNR0eEFDN6MgBAwaYDQRJoUOHDiopKdGAAQN09dVXKy8vjzvd4WjfffedVq1axdSMsIXNmzerb9++mjJliu655x6VlZUpKyvLdFgwICUlhe9fAAAcgqRZALNmzdLo0aN10003adGiRWrcuLHpkICkUPNZO3LkiOFIYBfdunVTfn6+du3apZ/97GeaM2eOLr744lPTOQJ2U1xcrIyMDJ199tmmQ0GSaNiwoQoLC/XEE0/ot7/9rW644QYdPHjQdFhATCxbtkwVFRW66qqrTIeCJPaf//xHeXl56tWrl9LS0rRx40bNmDFDderUMR0aDGF6RgAAnIOkmY/q6mr9/Oc/13333acZM2bohRdeUHp6uumwgKRRkzQ7fPiw4UhgNy1atFBeXp727Nmj2bNna/369erSpYuuuOIKLVy4kOlQYBs8zwwmuFwu5ebmasmSJVq3bp26d++u0tJS02EBUed2u9WtWze1bNnSdChIUitXrlT37t31+OOP65FHHtGHH36ojh07mg4LhjE9IwAAzkHSzEtlZaVuvvlmzZkzR4WFhZoyZYrpkICkQ9IModSpU0cTJkzQli1b9Pbbb6tevXoaMWKEOnfurGeffVZHjx41HSKS2K5du/TZZ5+RNIMx/fr107p163TRRRepf//+eumll0yHBERVzfPMgHg7fPiwcnNz1b9/f1188cXaunWrpk6dyrP1IImRZgAAOAlnd/914sQJjRs3TosWLdLChQs1ZswY0yEBSalRo0aSapc0c7lc0Qon4u3EMoZ47F80txGreF0ul6677joVFxdr06ZNysrK0i9/+Uudf/75+tnPfqZNmzbFZLumRbs+acfRLWvp0qU688wzk/Z5JqbakxNFUl8165x77rkqLi7W//3f/2nixIm66667VFFREe0Qa8UpfZkT1abtxdquXbu0bdu2mCfNnNA+rZbL58OahQsXqnPnziosLNRLL72kRYsWxeyZ54nU/uzafkz0Y9F4ppmJ+qR9xG4dAEDiImmm7x8mPXz4cC1fvlzFxcXMjw8YlJaWpjPPPNNWzzQL9wTZ5XKFPTWH7zacdFLu8Xhivj9du3bVnDlztG/fPj3++ONauXKlunXrpoyMDM2ePVvHjh2L6fZrKx7Hn3ZcO1bb8Zo1a5SRkaEzzjgjDlEFFutjEY/2FG12aJ+xjsG7naalpWnGjBl666239MYbbyg7O1u7d++O6vZ8OaUvi7Zka3ux9N5776l+/frq06dP2OsmYvuMR53G69glqi+//FLjxo3TiBEj1KdPH5WXl2vChAlhl5OI7c9u7N6P2X16RtpH7dBXAkBySfqk2aFDhzR06FBt2rRJy5cvj+gHGIDoaty4sa2mZzTxYyGRfqDYSePGjXXnnXdqy5YtKisrU8eOHTV58mSdd955mjRpkj7++GPTIVoSi+NPO46PkpIS9e7d23QYp4n2sXDCsbXDPsQjhuHDh+ujjz7S8ePHlZGRoaVLl8Z8mzWc0pdFmx32wQ4xRMLtdmvQoEGqU6dOrcuifSIYj8ejgoICde7cWWVlZXK73Zo7d66aNm0atfKjLdnan9321+7TM9qtvmIt2fYXABBdSZ00++abbzRs2DDt3LlTS5cu1eWXX246JAA6PWkW7K4xl8t16j9fka4XrJxQ6/m7I8/fOjX/9ld2uPvo7z3f1+NZh/5eN3FnXs+ePVVQUKDdu3drypQpeu+999SlSxcNHTpUf/vb31RVVRWXOEwc/0BxWF2PdhxZOz569Ki2bt36g6SZdzlW6y7Ya1Zj9V02nO3Euj05oU6sxBVqn6zEYHV/QrXT9u3ba+3atbryyis1bNgwzZw587RthGJi/wLFYXU92p75thdNVVVVWrZsmd+pGZ3QPoPth5VyQ+1DsOUYQfFDn332mYYOHao77rhDo0eP1ubNmzV06NCAyzu9/VktO5r9a6h1w9nfePVjviPNTNanP7QP+3/PAQDsI2mTZl9++aUGDBig/fv368MPP1SnTp1MhwTgvxo1amR5ekaPx3PqP6snsDU/Amq7nlWBtuX7Y8RfucG2GWg/wo0zmnUYaR3F0rnnnqv/9//+n3bu3KnFixerSZMmysnJUYsWLTRp0iStW7cuptuP9/EPhXYc/W3XKCsrU3V19WkjzazUXbDj6f1aqFj9rWdln4PFGUws25Nd6yTQPtv9M9KwYUMVFRXpscce00MPPaTx48eHNXVtMvVltL3g8Zn6rl+zZo0OHz7sN2nmhPYZ6vgGi8fKPkQaVzKpqqrSrFmz1LVrV+3fv19r1qxRfn6+GjRoEHQ9J7Y/q/1jtNZ3Qj/m/Uwz0/UZDO0j9H7RVwIAkjJp9vnnn+uKK65QVVWVVq5cqUsuucR0SAC8+I4083cCR5Bh5QAAIABJREFUW8Plsn73pbdI14tEoG1F4wQ8UNn+thWvOoxHnUYiJSVFgwcP1ty5c7Vt2zbl5uZqyZIlysjIULdu3fTUU09p//79Ud+uieMfC7Tj0EpKStSyZUu1atXK0vL8CD9dotSJv/Zhh8+IlXKmTp2qt99+W++884769u2rnTt31iqGROvLAqHtBd6eXb7r3W63LrroIrVt2/a095zSPqO9Dd/vylhswyk2bdqkPn36aNq0abr//vtVWlqqzMxMS+s6pf0FEk5ixUo9OLUfc7msTc8Yj/qMJ9oHAMCJki5ptnfvXg0ePFj169fX8uXLdf7555sOCYAPq880q80dYN7rxfJCWazvUvO3H953yoU62Y92HYazbZMuvPBC/frXv9b27dtVVlam/v3767HHHtN5552nIUOGqKCgIKwRGIGYOP6xQDu2pqSkhGejJgF/7cPunxFf11xzjUpLS1VdXa1evXqpuLg46PJO6csSnRPaXm243W5dc801p73ulPYZi3r1HZWRKOdp8XT8+HHl5eWpV69eqlu3rjZs2KC8vDydccYZltZ3SvuLBiuxOrkf852esbYirU+7Svb2AQBILEmVNDtw4ICGDh0ql8slt9ut5s2bmw4JgB/+pmesOWmNxYmyU06EQ915F886tPuPem89e/bUrFmztGfPHv31r39V3bp1NXHiRJ1//vmaNGmSVq5cmRD7QzuO/bZD+eijjyzflY7EZ6pfiFZ/e8kll+ijjz7S9ddfr2uuuUYzZ860RV/nlL4slhK97UXiwIEDWr9+vd+pGeMpHu0z2vXqmziLxTYS1QcffKDu3bvrqaee0h/+8AetWLFCl112memwAkqk/jFUrE7sx6yONIu07GAS7TNt1/2hrwQA1EgzHUC8HD58WNdcc42OHj2qDz74QOeee67pkAAE0LhxY33yySchl/N3EcDK+/7uurUi1Pa8l/G+S83KD1zv5bzjCRZroPfC2bdo12GgbccqyRFNdevW1dixYzV27Fjt3btXRUVFeumllzR79mxdeOGFGjFihMaOHau+fftavmhh4vhHIybacfjteP/+/dq7d6969Ohx2ntW9iVax9PfMYtGu7G6/WDL+NZlqBjsWiehyrYaW6w+I+H0t3Xr1tXLL7+s7OxsTZ48WatXr9arr76qRo0aBYw7XvsXzrZCLUPbs1/bC1dxcbFSU1M1YMCA095zSvu00nastDF/cfqLJ9HO06Lp0KFDmjp1qp5//nldd911Ki4uVuvWrSMqyyntz+q2wj2n8uXkfsx7pJnJ+gyF9mHP7zkAgL0kxUizY8eOafjw4dq3b5+WLVumCy64wHRIAIIIND2jvxPUmgsINf/5Lufvfd/XQ7FSXqj1g8Xou1ywbYZ6L9S+xboOw60buzrvvPOUm5urjRs3qqSkRKNGjdJbb72lfv36qX379nrooYe0fv16S2XF+/gHiyNYTHbbj0Rrx+Xl5ZKkzp07B43N6j74Wy7Yv/3FG259+64bTDTbU7Bt2rFOQpVth89IuO688069//77KikpUWZmpt8bV5zYl/kr0+pytL34fte73W5lZ2efltD1F1Oitk8rbcfKcoH2P5LPixMtXLhQnTt31oIFC/Tyyy9r4cKFESfMajih/QXaVqj+MZL+zKn9WEpKyg9GmpmsT39oH/b+ngMA2Ivjk2YVFRUaPXq0/vGPf2jx4sW6+OKLTYcEIIRGjRpZeqZZtLlcLr//hcvjsXY3XLJI9DvyMjMz9cQTT2jXrl0qLy/XLbfconnz5qlnz5668MILlZuba6spHGnHsRGqHZeXl+vss89Wy5Yt4xhV7NGeEktt+tsrr7xSZWVlaty4sbKysvTmm29GObrw0PYSSyy/6z0ej4qLi41PzejNSe0z0c/TrNq3b5/GjBmjH/3oRxo0aJDKy8s1YcIE02FFxEntz05q+1lwuWI3PWO4cdA+oi9Z+koAwPccnTSrrKzUmDFjtGbNGr333nvq2LGj6ZAAWNC4cePTnmkWD753sNXm7jJOqP/HSXXRqVMn5eXl6dNPP1VJSYnGjRunhQsXql+/fmrbtq2mTp2qkpISoz+YacexEaouysvL1bVr17DXs7tYtKdErxM7q23dtmrVSh988IHGjh2rUaNGadq0acb6M9peYoll3W7evFl79+61VdLMSd+1prcfax6PRwUFBercubM2bNigxYsXq6CgQOecc47p0CLmpPZnJ7WtC+/pGU2ifcQGdQEAycWxSbOTJ09q/PjxWr58udxut99njACwpyZNmujbb79VZWWl6VAAv1wulzIzM/X73/9en332mUpLSzVmzBgVFRUpKytLLVu21O23366ioiIjoyYRf+Xl5X6nZgQSTZ06dfTCCy/oueee0x//+EeNGDFChw4dMh0Wkpjb7VbTpk3VrVs306EgwWzfvl1XXXWVJk6cqPHjx2vz5s0aPHiw6bDgUHYZaQYAAGrPsUmzBx54QAsWLNCCBQvUu3dv0+EACEOzZs3k8Xh04MAB06EAlmRkZGjmzJn67LPPtGPHDj300EP617/+pVtuuUXnnHOOrrjiCs2cOVPr1q0zHSpiwOPxaOvWrerUqZPpUICoufPOO7V06VKtX79emZmZp57bB8Sb2+3WsGHDlJLi2J+uiLKqqirNnDlTXbp00TfffKM1a9Zo1qxZql+/vunQ4GB2GWkGAABqz5G/PObMmaMnn3xSzz//vAYMGGA6HABhat68uSRp//79hiMBwnfxxRcrNzdXxcXF+vLLL/Xqq6/qggsu0B/+8AdlZGSobdu2ys3N1eLFi3X8+HHT4SIKdu/ercOHDzPSDI7Tt29flZWVqVmzZsrOztb8+fNNh4Qk891332nVqlW2mpoR9rZhwwb17t1b06dP19SpU1VaWqqMjAzTYSEJpKSkMNIMAACHcFzSzO1266677tL06dM1fvx40+EAiEBN0uyrr74yHAlQO2effbZuuukmvfbaa9q/f7/Kyso0fvx4rVq1SldffbUaNWqkjIwMTZs2Te+//74qKipMh4wIfPzxx5JE0gyOdN5552nFihW6++67NXbsWKPPOUPyWb58uSoqKphSDyEdO3ZM06ZNU69evdSgQQNt2LBBeXl5Sk9PNx0akgTTMwIA4ByOSppt3bpVN954o0aPHq2HH37YdDgAItSkSROlp6cz0gyOkpKSop49eyovL09lZWXat2+fXn/9dfXs2VN//etfNWTIEJ199tkaMmTIqakcmeIlMWzbtk3NmzdXkyZNTIcCxERaWppmzJihgoICzZo1S8OHD+d5jYgLt9utyy+/XC1btjQdCmxs+fLl6tatm/Lz8/XMM89o+fLluvTSS02HhSTD9IwAADiHY5JmBw4c0IgRI9S5c2e98sorcrlcpkMCECGXy6WmTZuSNIOjtWjRQmPHjlV+fr4+//xzbd26VTNmzFCDBg00Y8YMZWRk6LzzztP48eP17LPPasuWLdy9alOfffaZLrnkEtNhADE3fvx4LVmyROvXr1fv3r316aefmg4JDlfzPDPAn4MHD2rSpEkaNGiQLr30UpWXl+vOO+/kWgCMYKQZAADOkWY6gGg4fvy4hg8fLo/Ho7/97W+qU6eO6ZAA1FLz5s2ZnhFJpUOHDurQoYMmT56s6upqrVu3TkuWLNHy5cs1depUHT16VI0bN1Z2drays7N1xRVXqFevXjzU3gZ27NhB0gxJIzs7W2VlZRo5cqSys7NVWFjI1HmIiV27dumf//wnSTP4VVRUpHvuuUdpaWkqKirS6NGjTYeEJMdIMwAAnCPhR5p5PB5NnDhR//znP/Xuu++qWbNmpkMCEAUkzZDMUlNTlZmZqQcffFBut1sHDx7Uhg0b9Nhjj6lJkyaaPXu2Bg4cqCZNmqh379669957VVhYqO3bt/Nj3QCSZkg2559/vj744ANdf/31uvrqqzVz5kzTIcGB3G636tevr+zsbNOhwEb27t2rkSNHKicnR1dffbXKy8tJmMEWUlJSGGkGAIBDJPxIs0ceeUTz589XcXGx2rdvbzocAFHSrFkzpmcE/is1NVXdunVTt27dNHnyZEnSF198oZUrV2r16tVavny5nn76aVVVValJkybq0aOHevbseeq/tm3bGt4D5zp58qR27dpF0gxJp27dunrllVfUo0cP3XfffdqyZYuef/551atXz3RocAi3261BgwYxiwgkfX+z7PPPP6/7779fLVq00Pvvv69BgwaZDgs4xeVyqbq62nQYAAAgChI6abZ06VI9+uij+tOf/qQrr7zSdDgAoqh58+YqKSkxHQZgW61bt9ZNN92km266SdL3UxVv2rRJ69at07p16+R2u/XHP/7xVCKtZ8+e6t69uzp16qROnTqpQ4cOatCggeG9SHz/+te/9J///IekGZJWbm7u/2fvzsOjqNK+j/86QbYQEhajQIBIAFkUUAICIoIMCo7rIEQdZdwQFV/BZQZGeBQdfMRZUJRxgHG5RJ0RUNGBUcMmKgKyCILMsAgKhkWWIWEJkK3fP5zkadqu7uruqq7q7u/nunKRrq465646lUNSd59z1LZtW918883q37+/3nnnHTVp0sTpsBDnysvLtWTJEj311FNOhwIX2LZtm+6++24tW7ZMDz/8sCZMmKDatWs7HRZwmpSUFJWXlzsdBgAAsEDcJs0KCwt144036oYbbtC9997rdDgALHbmmWcyPSMQhjp16qhHjx7q0aNH9bYTJ05o/fr11Ym0xYsXa+rUqTp58qQ8Ho9atmypDh066LzzzlOHDh3UsWNHtWvXjmRaGHbs2CFJrkmalZSU6NSpUyovL9fRo0ertx8/flylpaWSfvy0flFRUfV7p06dUklJScDyMjMz5fF4ql/XrVtXtWrVUnp6umrUqKHMzEzVqFFD9evXt+mMEA8GDRqkVatW6dprr1VeXp7mzp2r7t27Ox0W4tjKlStVXFzMemZJrqysTJMnT9bjjz+uDh066IsvvtCFF17odFhAQB6Ph+kZAQBIEHGZNCsvL9dNN92kBg0aaMaMGU6HA8AGTM8IRK9OnTrq2bOnevbsWb2toqJC3377rb7++mv961//0tdff60FCxZoypQpOnXqlCTprLPOUm5urnJzc9W6dWu1atWq+nVWVpZTp+NKO3bsUFpaWlTXpaSkREVFRTp8+LCKioqqv44fP67Dhw+rpKREx48f19GjR1VcXFz9uri4WMeOHdPx48er93VSzZo1lZGRoYyMDGVmZiozM1MNGjQ47XWjRo109tlnKysrS2eddZbOPvtspaWlORo3rNGmTRutXLlSt9xyi/r06aPp06frV7/6ldNhIU4VFBTonHPOYXrhJLZixQoNHz5cO3bs0BNPPKFHHnlEqampTocFGEpJSWFtYQAAEkRcJs3GjBmjdevW6YsvvuCTzUCCysrK0pEjR3Ty5EmmXwEslJqaqtatW6t169a67rrrqrdXVFRox44d2rx5s7Zv367t27drx44dWrVqlb799tvqUUrp6elq0aKFmjVrpiZNmqhFixZq0qSJsrOz1bRpUzVr1kxnnXXWaaOTEllhYaGaNm2qffv2qaioSMXFxdX/FhcXVyfC/BNivtuqrq2vmjVrKi0tTQ0aNFBaWprq1q2r9PR01a9fX5mZmWratKkyMzOVlpamtLQ01atXTxkZGUpLS1Pt2rXl8XiUmZlZXV7t2rVPW2sqIyNDKSkpkqQzzjgj4OjCiooKHTly5LRtVSPWjhw5ooqKCh0+fFiVlZUqLi5WWVlZ9fn7nuPOnTu1YcMGFRUV6eDBg/rPf/5zWplpaWnVCbSzzjpLLVq0UE5Ojlq0aFH9RbI2PtSvX19z587VuHHjdNttt+nLL7/U5MmTedCNsBUUFGjgwIFOhwEHlJSU6Mknn9Qf//hH9e7dW3PnzlWbNm2cDgsIKSUlhZFmAAAkiLhLms2bN0/PPvusXn31VXXs2NHpcADYpOoB6YEDB9S8eXOHowESX2pqqtq0aRPwwVRlZaW+//776kRaYWGhvv/+e+3du1dr167Vnj17TkuEpKSkqFGjRmrcuLEaNWpU/f2ZZ56pxo0bV49GSk9PV926dauTQ1Xfp6en23quxcXFOnXqlI4dO6ajR4/q1KlTOnLkiEpKSnTy5EkVFRXp5MmTOnHihIqKinTq1CkdPXr0J0mv4uJiHTp0SJWVlWratOlpdaSkpCgjI0MNGjSoHnGVmZmp7OxsnXfeeadt8x2VVfV93bp1bb0GZqSmpqpBgwanbfN/HYnS0lLt379f+/bt0w8//KD9+/dr79691f9+8cUXmj17tvbt21f9ie06deqoZcuWatGihVq1aqW2bdvq3HPPVdu2bZWTk6MaNeLuV9qElZqaqkmTJqlz58668847tWXLFr311lunJXGBYA4dOqS1a9dq3LhxToeCGPvggw9077336ujRo3rxxRc1fPjwpPkQDuIf0zMCAJA4PN44Gj++fft25eXlKT8/X9OmTXM6HAA2+uabb9SmTRutXbuWtQuAOHDixAkVFhZq79692rNnjw4dOqRDhw7p4MGD1d/v379fhw4dqh6FFUq9evV0xhlnSPrp2lq+atSoUZ1oO3bsmMrKyiSpegRUlapEWDBVI7SqRmZVfZ+enn7aNIOZmZnKyMjQyy+/rIyMDD355JPV2zIzM21P/CWDU6dO6fvvv9euXbu0a9cu7dy5Uzt37tSOHTu0ZcsW7du3T9KPo/JatWpVnURr27atOnTooPPPP592cNi6det03XXXqWbNmnr//ffVoUMHp0NCHPj73/+uYcOG6eDBg8rIyHA6HMTAf/7zH/32t7/VjBkzNGTIEE2dOpURxog7t99+u/bv369//vOfTocCAACiMydukmYnT57UxRdfLK/Xq+XLlzNdG5Dgjhw5ooyMDH344YdMzwMkqKNHj1avx1VUVHTa+lzSjyPCKisr5fV6VVRUJEkqKyvTsWPHDMusU6fOab8j+CbbqqY8TE9Pr06E1atXT7Vq1VJGRobq1q2rWrVqhXUOeXl56t+/v5555plwTx9ROnLkiLZu3aqtW7dqy5Yt1d9v3bpVx44dk8fj0TnnnKNOnTqpU6dOOv/889W5c2fl5uZWT00J++3Zs0eDBw/Wpk2b9Prrr+vaa691OiS43G233aZvv/1Wn3zyidOhIAbmzJmj++67TzVr1tTUqVN1/fXXOx0SEJE77rhDe/fu1Ycffuh0KAAAIDpz4mYum8cee0zffPONvvzySxJmQBKoX7++ateurf379zsdCgCbpKenx/1IoD179qhJkyZOh5GU6tevr7y8POXl5f3kve+++04bNmzQxo0b9dVXX2nWrFl66qmnVFFRobS0NHXs2FFdunRR9+7d1b17d3Xo0IF1t2zStGlTLV26VPfee6+uv/56PfbYY3r88ceZcg0Beb1eLVy4UCNHjnQ6FNjsu+++0z333KMFCxZo+PDh+uMf/xj3vxMgubGmGQAAiSMukmYrVqzQ5MmTNX36dOXm5jodDoAYOfPMM0maAXCtiooK7d+/X82aNXM6FPjJyclRTk6OrrnmmuptJ06c0KZNm7RhwwZt2LBB69at05tvvqnjx48rLS1NXbt2rU6ide/eXS1btnTwDBJLrVq19Morr6hHjx4aOXKkNm/erFdeecUVa/fBXTZu3Kg9e/boiiuucDoU2KSyslIvvfSSHn74YTVp0kRLlixR3759nQ4LiFpKSoriZCInAAAQguuTZidPntRdd92lyy67THfccYfT4QCIoaZNm2r37t1OhwEAAe3du1cVFRVq2rSp06HAhDp16vxkZFpFRYU2bdqkVatWadWqVVq4cKGee+45lZeX66yzzlK3bt3Uq1cv9enTR926dVPNmjUdPIP4d/fddysnJ0c33nijLr30Us2dO1fZ2dlOhwUXKSgoUOPGjXXBBRc4HQpssHHjRg0fPlxffvmlHnroIT3xxBNhT4sMuJXH42GkGQAACcL1Czr89re/1e7du/Xyyy8zjQuQZLKzs0maAXCtffv2SRLTM8ax1NRUderUSXfddZdmzJih9evXq7i4WJ999pl+85vfKC0tTVOnTlXv3r2VmZmpfv366fHHH9fixYur195DeC6//HJ98cUXOn78uLp3765Vq1Y5HRJcpKCgQJdffjnrDiaYsrIyPfPMM8rLy1NKSorWrVunSZMmkTBDQmGkGQAAicPVf40sX75cL7zwgqZMmaLmzZs7HQ6AGGvWrBlJMwCudeDAAUk/TiWLxFG3bl317t1bDz30kN566y3t3r1b33zzjV588UXl5OTozTff1M9+9jM1aNBAvXr10pgxYzR//nwdOXLE6dDjRps2bfTFF18oLy9Pffr00RtvvOF0SHCBkpISLVu2jKkZE8znn3+uzp0768knn9STTz6pzz77TB07dnQ6LMByrGkGAEDicG3SrKSkRLfddpsGDRqkX/3qV06HA8ABzZo1U2FhodNhAEBAhw4dUs2aNZWenu50KLBZbm6ubrvtNr366qv65ptvtHfvXr355pvq1q2bFi9erGuvvVYNGzZUXl6exo4dq0WLFqmsrMzpsF0tPT1dc+fO1ejRozVs2DCNHTuWh41JbunSpSotLdWAAQOcDgUWKC4u1qhRo9SnTx/l5OToX//6l8aMGaPU1FSnQwNswfSMAAAkDteuaTZ27FgdOHBAS5YscToUAA5p1qyZ9u7dq8rKSqbpAeA6hw4dUqNGjZwOAw44++yzNWTIEA0ZMkSSqn9nXbhwof72t7/pmWeeUWZmpvr3768BAwbo8ssv1znnnONw1O6TmpqqSZMmqXXr1ho5cqS2b9+u1157TXXr1nU6NDigoKBAnTt3ZsrbBDB//nzdd999On78uP7yl7/o7rvvdjokwHZMzwgAQOJw5VPozz//XH/+8581depUFgcHklh2drbKysq0f/9+p0MBgJ8gaYYqZ555pvLz8/XSSy9p165d+te//qUnnnhCJ0+e1MMPP6xWrVqpTZs2GjlypN5//33WQ/Nz1113afHixfrkk0/Uq1cv7dq1y+mQ4ICCggKmZoxzP/zwg4YNG6arr75aPXr00ObNm0mYIWkw0gwAgMThuqTZqVOndMcdd+jqq6/WL3/5S6fDAeCgZs2aSRLrmgFwpUOHDqlx48ZOhwEXat++vR544AHNnz9f//nPf/Txxx9r6NChWrVqlX7xi1+ocePGuuqqqzR9+nT+j/uv3r17a8WKFSorK1OPHj20atUqp0NCDO3cuVNbtmwhaRbH5syZo44dO+qzzz7TRx99pNmzZ7PmJ5JKu3bt1LVrV6fDAAAAFnBd0uyZZ55RYWGhnnvuOadDAeAwkmYA3IyRZjCjZs2a6tu3r5566imtXr1a+/fv1/Tp01W3bl395je/UXZ2tjp27KixY8dq2bJlST21U25urlauXKmuXbvq0ksv1RtvvOF0SIiRgoICpaWlqVevXk6HgjDt2LFDAwYM0I033qjBgwdr48aNJD+RlO69915NmTLF6TAAAIAFXJU027lzp5555hk9/vjjysnJcTocAA6rU6eOGjZsSNIMgCsdPHiQpBnC1qhRIw0bNkyzZ8/WDz/8oPnz5+uSSy7R66+/rksuuUQtW7bUyJEjtXTpUlVUVDgdbsylp6frvffe06hRozRs2DCNHTuW6a6SQEFBgfr166datWo5HQpMKi8v15QpU9S5c2f98MMPWr58uaZPn6569eo5HRoAAAAQFVclze6//37l5OTowQcfdDoUAC7RrFkzkmYAXOnw4cNq2LCh02EgjtWuXVs///nPNW3aNBUWFmr16tW67bbb9Nlnn6lfv37Kzs5OygRaamqqJk2apBkzZmjy5MnKz89XSUmJ02HBJuXl5VqyZAmjk+LIhg0b1KtXL/3617/WyJEjtWbNGl100UVOhwUAAABYwjVJs3/+85+aP3++pk6dqjPOOMPpcAC4RLNmzVRYWOh0GADwE0ePHlV6errTYSBBeDwe5eXl6cknn9SGDRu0Y8cOjR07Vl999ZX69euns846S8OGDdO8efNUXl7udLgxcdddd2nJkiX65JNPdPHFF2vXrl1OhwQbrFy5UkVFRSTN4sCJEyc0YcIEdevWTTVr1tRXX32lSZMmqWbNmk6HBgAAAFjGFUmziooKjRkzRoMHD1a/fv2cDgeAizDSDIBbHTt2jGmoYJtzzjlHo0aN0rJly/Tvf/9bo0aN0vr163XNNdeoRYsW+n//7/9pxYoVTodpu969e2vFihUqLS1Vjx49tHr1aqdDgsUKCgqUk5OjNm3aOB0Kgvjss8904YUX6tlnn9Xvf/97ffrpp2rfvr3TYTnG4/HwxRdffJn+mj17ttPdFgAgDDWcDkCSZsyYoW3btmnu3LlOhwLAZbKzs7V8+XKnwwCAnzh69ChJM8REu3bt9D//8z/6n//5H23evFmzZ8/WrFmzNHXqVLVu3Vq33HKLbrnlFuXm5jodqi1yc3O1cuVK3XzzzerTp4/++te/6pZbbnE6LFikoKBAAwcOdDoMGCguLtZjjz2mqVOnatCgQVqwYIGaN2/udFiuMHr0aPXs2dPpMAC4XH5+vtMhAADC5HjS7OjRo3ryySc1cuRIPl0I4CeYnhGAG3m9XpWUlJA0Q8y1a9dOjz32mB577DFt2rRJr7/+uqZPn64JEyaoa9euuvXWW3XTTTcpKyvL6VAtlZ6ervfee0/jxo3TsGHD9PXXX+t///d/lZLiiokzEKFDhw5p7dq1evTRR50OBQHMmzdP9913n8rKyvTqq69q2LBhTofkKj179tRD77zodBgAXGzagxOcDgEAEAHH/8r8/e9/r9LSUo0fP97pUAC4ULNmzXT06FEdPXrU6VAAoNrx48dVWVlJ0gyO6tixoyZNmqTvv/9eH374odpxlvylAAAgAElEQVS1a6dx48apefPmuu666/TOO+/o1KlTTodpmdTUVE2aNEnTp0/X5MmTlZ+fr5KSEqfDQhQWLlyolJQUpuh3mX379mnIkCG65ppr1LNnT3399dckzAAAAJA0HE2aHTx4UFOmTNFvfvMbNWzY0MlQALhUs2bNJInRZgBcpSqRn56e7nAkwI/JpIEDB+qNN97QgQMH9MYbb6iiokI33nijzj77bI0YMULr1693OkzLDB8+XEuWLNEnn3yiiy++WLt27XI6JESooKBAPXv2VEZGhtOhQD+Oop45c6Y6duyotWvXasGCBZo9e7YaN27sdGgAAABAzDiaNJs0aZJq166tkSNHOhkGABerSprt3r3b4UgA4P8cO3ZMkhhpBtepU6eOhgwZonnz5mnnzp0aO3asFi9erAsuuEB5eXmaMWNGQoze7t27tz7//HOdOHFCvXr10tq1a50OCRFYtGiRrrjiCqfDgKTt27drwIABuvPOO3XLLbdow4YNGjBggNNhAQAAADHnWNJs7969+stf/qJx48bxwAmAocaNGystLY1PkQNwlePHj0uS6tat63AkgLGmTZtqzJgx+uabb7RmzRp17dpVDz74oLKysjR06FAtWrRIXq/X6TAj1qZNG61cuVIdOnTQpZdeqrlz5zodEsKwceNGFRYWkjRzWHl5uaZMmaLOnTvrwIEDWr58uaZMmcLf6AAAAEhajiXNnn76aTVs2FAjRoxwKgQAcaJ58+bauXOn02EAQLWqdaJq167tcCSAOV27dtX06dNVWFioP/zhD9q2bZsGDBig8847T88//7yKioqcDjEimZmZ+vDDD3X77bdr8ODBmjBhgtMhwaSCggI1btxYF154odOhJK3169erR48eGjt2rB555BGtXr1a3bp1czosAAAAwFGOJM3279+vl156SWPHjuVhE4CQcnJySJoBcJXS0lJJUq1atRyOBAhPgwYNdP/992vdunVas2aNLrnkEo0bN07Z2dkaPny4vvzyS6dDDFtqaqpeeOEFPfvss5o4caLuvPPO6p9RuFdBQYEuv/xypaQ4umJAUjpx4oTGjh2rvLw81a1bV+vWrdOECRNUs2ZNp0MDEk7hrKUqnLXU6TAAAEAYHPkLZcqUKUpPT9cdd9zhRPUA4kxOTo6+++47p8MAgGpVI814wIh41rVrV02bNk179uzR5MmTtXr1anXt2rV67bOSkhKnQwzLqFGjNH/+fL399tvq37+/Dh486HRIMHDixAl9/vnnTM3ogE8++URdunTRtGnT9Kc//UlLly5Vu3btnA4LcJWqRJf/FwAASA4xT5odOXJEL774okaPHq06derEunoAcahly5aMNAPgKow0QyJJT0/X3XffrfXr11evfTZ69Gg1bdpUI0aM0KZNm5wO0bSBAwdq2bJl2rVrl3r27KktW7Y4HRICWLp0qU6ePKkBAwY4HUrSKCoq0ogRI9SvXz+1bdtWX3/9tUaNGsVIP8BPVXIsO7/vaV++7wEAgMRWI9YVTps2TZWVlbr33ntjXTWAONWyZUsVFhaqvLxcNWrEvNsCgJ9gpBkSVdXaZ7/73e/06quvavr06frrX/+q/v3764EHHtBVV10lj8fjdJhBnX/++Vq5cqWuvfZa9erVS++884769u3rdFjwUVBQoE6dOqlJkyZOh5IU5s2bp3vuuUeVlZWaPXu2brjhBqdDAuKab2LN93vf90Id68v/WDPlVm0HAADWi+nHysrKyvTCCy9oxIgRyszMjGXVAOJYTk6OysvLtXv3bqdDAQBJP44083g8OuOMM5wOBbBFVlaWxowZo23btum9995TZWWlrrnmGnXs2FHTpk1z/dSNTZo00aeffqrLL79cV1xxhV577TWnQ4KPgoICpmaMgb1792rw4MG69tpr1b9/f23atImEGWAh/0RWoFFqZt43KifYcYx6AwDAPjFNmr399tvau3ev7rvvvlhWCyDOtWzZUpKYohGAa5w6dYqpGZEUUlNTdc0112jx4sXasmWLBgwYoIcfflhNmjTRqFGjXP1/c+3atfW3v/1Nv/3tb3Xbbbdp1KhRqqysdDqspFdYWKjNmzeTNLOR1+vVjBkz1K5dO3311VdauHChZs6cqYYNGzodGpBQjJJjdpXrmyhjpBkAAPaJadLs+eef1/XXX6+cnJxYVgsgzjVp0kS1a9fWd99953QoACBJTBeLpNS2bVtNmTJFO3fu1JgxY/T222+rdevWGjp0qD7//HOnwwvI4/FowoQJeuWVVzRt2jQNHTrU9aPkEt0HH3ygtLQ0XXzxxU6HkpC++eYb9e/fXyNHjtRtt92mr776Sv3793c6LAA+Cmctrf4ywzdBFs5xAAAgMjFLmq1du1YrV67UAw88EKsqASQIj8ej5s2bu/rT7ACSi9frdf26ToBdGjdurEcffVS7du3Su+++qz179qh3797q2rWrZs6cqfLycqdD/Inbb79dS5Ys0aeffqp+/fpp3759ToeUtAoKCtS3b19G61qsrKxMzzzzjM477zwdPnxYK1as0JQpU5SWluZ0aAD8+I4kMztSzX8/EmcAANgnZkmz559/Xl26dNEll1wSqyoBJJCcnBySZgBcg6QZ8OPUjVdffbWWLVumzz//XC1bttTtt9+u9u3b68UXX3TdiK6LL75Yy5cvV3FxsfLy8rRu3TqnQ0o6FRUV+vjjj5ma0WLr1q1Tjx499MQTT+iJJ57QmjVrlJeX53RYQNIzm9gKtR/TMgIAEFsxSZoVFxfr7bff1ogRI2JRHYAE1LJlS6ZnBOAaJM2A0/Xq1Uvvvvuutm3bpiuvvFK//vWv1bJlS40dO1Z79uxxOrxqrVu31vLly9WmTRv16dNH8+bNczqkpLJy5UodPnyYpJlFSkpKNHbsWHXr1k316tXT+vXrNWbMGKWmpjodGhC3qpJSvlMoViWtQiWs/I/139+obDPlhhsLAACIXEwW43jjjTfk9Xp14403xqI6AAmoZcuWWrp0qdNhAIAkkmaAkVatWmnKlCkaN26c/vznP+vFF1/U888/r1/96ld66KGH1KZNG6dDVMOGDVVQUKARI0bo+uuv11NPPaUxY8Y4HVZSKCgoUE5Ojtq2bet0KHHvo48+0j333KPi4mK9+OKLGj58OP8vARYxmxwz816o11a8BwAArBWTkWYvv/yy8vPzlZmZGYvqACSgnJwc7dq1S5WVlU6HAgAkzYAQsrKy9MQTT6iwsFDTpk3Txx9/rHbt2unqq6/W6tWrnQ5PNWvW1Kuvvqo//elPevTRRzVixAiVlZU5HVbCKygoYJRZlA4fPqwRI0Zo0KBBOv/88/X111/r7rvv5v8kAAAAwCK2J82+/PJLrVu3TnfeeafdVQFIYC1btlRpaan27dvndCgAQNIMMKlWrVoaNmyYNm3apL/97W/6/vvvddFFF+nnP/+5Pv/8c6fD06hRozR79my98cYbuuqqq1RcXOx0SAnr8OHDWrt2LUmzKLz33ntq27atPvjgA/3jH//QvHnz1KxZM6fDAgAAABKK7Umz119/XW3atFHv3r3trgpAAsvJyZEk1jUD4ApnnnmmunTp4nQYQNxITU1Vfn6+1q9fr08//VSnTp1S79691bt3b82bN09er9ex2AYPHqyPP/5YhYWF2r9/v2NxJLqioiINGTJEl112mdOhxK1atWpp6NCh2rRpk66++mqnwwEAAAASkq1Js8rKSs2ZM0c333yzndUASAJNmzbVGWecQdIMgCsMHjxYixcvdjoMIC717t1bixYt0meffaYGDRro2muvVZcuXTRz5kxVVFQ4ElP37t21ceNGV6y5lqjOOecc/f3vf1dGRobTocStQYMG6c9//rPq16/vdCgAAABAwrI1abZo0SLt3r1bN910k53VAEgCqampatmypb799lunQwEAABaoGmW2bt06de7cWY8++qhKS0sdiyclJSbLPQMAAAAAXKyGnYW/+eab6t69u84991w7qwGQJFq1aqXt27c7HQYAALBQ586dNXPmTB09elR16tRxOhwAAAAAQBKz7eOUpaWlev/99xllBsAyubm5JM0AAEhQ6enpTocAAAAAAEhyto00W7x4sY4cOaJf/OIXdlUBIMm0atVK//jHP5wOA7CUx+NxOgQABrxer9MhIIDZs2crPz/f6TAA282aNUtDhw51OgwAAAAgqdiWNJs7d67y8vLUokULu6oAkGRyc3O1Z88enThxgumbkFBGjx6tnj17Oh0GgP9asWKFnnvuOafDQAizZs1yOgTANiSGAQAAAGfYkjSrrKzUvHnz9MADD9hRPIAklZubK6/Xq++++07t27d3OhzAMj179tRD77zodBgA/mvy4PtImsWBui2ydM+zE5wOA7DctAcnOB0CAAAAkLRsWdNsxYoV2rdvn6677jo7igeQpFq1aiWPx8O6ZgAAAAAAAAAAy9ky0qygoEA5OTmMBAFgqXr16ikrK4ukGQAAAADHFc5a6nQIAAAAsJgtI80WLFigK664wo6iASS53NxckmYAAAAAEprH45HH43E6DOA0we5L7lkAQKKwPGlWVFSkNWvWaMCAAVYXDQAkzQAAAAAkBJIM8a+qDX2//N+LpKxwj4k2Xu5FAAD+j+VJs8WLF0uS+vXrZ3XRAEDSDAAAAEBC8Hq98nq9TocBC/i2ZVXyyc3tWxVbVXxujhUAgFizfE2zhQsXKi8vTw0bNrS6aABQbm6uvvvuO1VUVCg1NdXpcADAclXro2Tn93U0DgAwYrafoj8DgvNNrvi+RmIw076BEm1Vo74CvRfotZm6QiXEIj2eexYAkIhsSZrdfPPNVhcLAJJ+TJqdOnVKu3fvVosWLZwOB4BLVT2o9ee2B7c8UAYQK779Yjh9Dv0UEBsk0OKbb3sFSjDZ3b6hEmi+SbhQ8Zo53mg/AAASgaVJs++++047duxgPTMAtsnNzZUkbd++naQZgJB8H/IWzlqqwllLXf/g1+3xAQD9FACcLlSCyW3MxEcSDACQrCxNmn300UdKS0vTRRddZGWxAFAtKytL6enp2r59O2snAoiY78gJ/1EUgUaphXrPaASH2bKijSecGHjYDSQf/77C/wMERn1QpP2UUT8TrD8LpxwASCS+ySn/751Mvrk98QcAgF0sTZotXrxYffv2Va1atawsFgBO06pVK23fvt3pMAAkAP8HtIGmIQv0gNn3QbHve76vQ5VltE8k8YQbAw+iAQQSKGkVaT/lv3+o/oz+CkCyM5o+EQAAxJalSbMVK1bo/vvvt7JIAPiJWbNmKSsry+kwACSARHkYG+o8fB88J8o5AzDHPxllNNrMd59oRVMO/RWSldfrrZ7aD/En1Jpm0bRvsGP93/N6vQH3D2fUmFF9/mVwzwIAEpVlSbN9+/Zp9+7d6tatm1VFAkBA5557rtMhAIgTyT7Vl+/ojVCjRQAktkBTIzrBKA76KySjQEkIxJdgbRasfc0k2SKtJ9j+ZrdHux8AAPHMsqTZqlWr5PF41LVrV6uKBAAAiAoPXH+65hDTnQHJKdR6i07EYfQe/RWARBRq5BYAAHCHFKsKWr16tdq2bavMzEyrigQAAEAUfB+M8+AZSD5GI7b8k1N21RvOvvRXABJd1dSJVV8AAMCdLBtptnr1aqZmRMIYMmSI0yEASWvOnDlOh4Ak5rvWj/92O8ry3yfQg+1o4vGd7izcYwFAiqyfCtTPhOrP6K8AAAAAuIElSTOv16s1a9boscces6I4wHFvv/22evTooezsbKdDAZJGYWGhVq5c6XQYSBChHrSamR7MzHvhvraizFDvRRIDgMRktv8It88028+E2x/RXwEAAABwmiVJs2+//VaHDh1ipBkSyoMPPqjFuzc5HQaQNIY0G6L8/HynwwAAAAAAAACQpCxJmq1evVo1atRQly5drCgOcI1/rvzE6RCApNF/cEenQwAAAAAAAACQxFKsKGTNmjXq2LGj6tSpY0VxAAAAAAAAAAAAQExZkjTbtGmTOnXqZEVRAAAAAAAASDIej0cej8fpMBAFs23oux/tDgBwG0uSZlu3blXbtm2tKAoAAAAAAABhiJfEQ7zEaVbV+fh+2VWHlWXYEWtVeV6vN6w6fPcHAMANol7TrLS0VDt37tS5555rRTwAAAAAAABIQFUJkkRj53lZXbZ/cssuidrWAIDEF3XSbPv27SovL2ekGQDXKZy1VJKUnd/X0TgAAAAAIBD/0TVerzfgiJ1Ar32P8S8v1L6BRvX41m1UrlE5VceGSpSEii+RhHvNzOwfaD/fsgJtDxST0XazdZspN5y2rorfzD0EAIDdop6eccuWLfJ4PGrdurUV8QCApB8TXlVJLzPbAQAAACCe+CYVqr6iPcZ3m/++vtuM9g+0r5lyIkl+BSo3XvlPzxjuNTOzv9F+/kKVESzhZVcyM5HaGgCQ+KIeabZ161ZlZ2crLS3NingAAAAAAAAQRKym2AtUZyDJngiJ5PwDHePkyLtgI9iMRiACAJCILEmasZ4ZACf5jzwLNB1joKka/bcFGsEWaP9g9QAAAACAXfyn4YvldHYkS+wXi2tsdM/QvgAA/Cjq6Rm3bt3KemYALBcokWWU+MrO71v95X+MWb5lByor0PtMEwkAAAAg1pjiDpGKZPpF33uN+w4AkAyiHmm2ZcsWDR482IpYACBssR7tVZWkc6JuJDaSsIB7zJ492+kQYMJVPfgAC4D4ZjT1XaDtVQKtSRaoLKNyIp1GMFA80SZQgp1nvAv32pu9xlZcM98ygt1v4bSvf5nB3g/EielGAQAwElXS7MSJE9q/f79atWplVTwAUK1qNJfvAzH/RJXVD8uMyvMdWRZoxBvgZvwRCjcKdl9yz8INuA/hj34LdjC6Z8LdbvSe2XLCfW0mnkjqjTfhtocV231fB0vKBRshFk47RNq/JVpbAwCSR1RJsz179kiSmjZtakkwABCOYOuURSpYIizQlI0kzuAWPKyLf0aLr/u+Z7Z9I/lEeTR1+NbFvYh4wv0aHfotAIEEGwXFz1n0rB7xZ5VQo82M0AcDANwmqjXN9u3bJ0k6++yzLQkGAPz5JqWsTFCZTa75jy6zOg7AKqxtkTh829J/iiU3qorNd3oot8YK+ON+tQb9FgBfvj9j/l+IXqyvaTj1RBIT9wYAwG2iGmm2b98+paSkKCsry6p4AMC0QNM3mt3Xd7rFYGX5rl9m9B7gBv6f0EzEtSGSmZn2DfTA2v/TvkblBJrmx6iuUA81Ij2eexZOoO+0D/0WAAAAgHgUVdJs7969aty4sc444wyr4gGAnzAzZaKZ98J9HU5dgJvwEDi+hZqizO72DfUg2n/KnWDxmjneaD8g1rgPI0e/xf0CAAAAJIqoR5oxNSMAAIB1Qj2odRsz8fEwGUhs9FsAAAAAEkXUSbMmTZpYFQsAAACi4PuQ1/97Jx9iu/0BOgDn0G8BAAAAcJOop2dkpBkAAIC7GE1DBgBuRb8FAAAAwA1SojmY6RkBAHAf/2myEF982y3QSIdo2jfYsYHeC7YtkvqMYuaehRtwH0aOfov7BQAAAEgUUSXN9u/fr6ysLKtiAQAAEfJ6vac9FKx67fsFdwvWZsHaN1AZwbaZqSfY/sHqCqc+7lm4AfdhdOi3uF/gPuPHj3c6BCSYqnsq0e4to/NJtPMEAIQvqqTZkSNHlJGRYVUsAAAAMMF/9AMPagG4Hf0WEDn/h/iJ8lDf6Lzi6fzGjx9/2lekZfj+67/dqbjMlB1qv1jwP9d4vI8AAO4S8ZpmXq9Xx48fV7169ayMBwAAACHwsBlAvKHfAqwzceJEp0OwRbyel2/c48ePD/s8jPaP9HpEEkM4Jk6caHsd4QoUi5viAwDEl4iTZidOnFBFRQVJMwAAAAAAgAj4joapeshflZDwTUxU7We03ff4YGWHOiZYfIHq94032Pn4l+Ffvtnz9a/Pzcxe/1DnHe71NhuPb12hYjZbrlF5oeI1KsPsz4dRXGavE6PSAAC+Ik6aHTt2TJJImgEAAAAAAEQgWDLE9z2jB/1GSQOjREs4CadAZYRidD5mthuVE48ivf7hnLdRHb4JMf8yA91fZtoplHDb3fe10X0WKlloJukWqhwzZQEAkg9JMwAAAAAAAAcYPaC3ImlkVLadI7XsSDgEG3XlBuGOzgr3HEKNOjM6JpL67E4YhVu+2Z+PcEdMAgAQDEkzAAAAAACAGLN7hEuwdZ4CTc0XrWQdsRNuAkyy7vrHW/tZtd6b3fUCAJJbxEmzo0ePSiJphsQ27cEJTocAJI2SXfudDgEAAABISIGme4ynpJZbR5lFKtzrH+4aXvEg3HitOr94u04AgNhjpBkQxFU9+tpWtsfjkSR5vV7b6gCC3Wduuwdn75rtdAgJxePxuKZtEV+ivXeMjueehBtxXyYG+i3EK7OJE9/9giW+zLwXzlSCRvGFu91M+Uaxx2tyI5LrH+55m6nDbFmByjNitOZYsPKCrbVm9n6K9F4IVU68JZABAPbzeCP8K+Ddd9/V4MGDVVZWpho1Is69Aa7k8Xg0a9YsDR06NOpypPhIWCSLquvuq6oNwm0T37LCPSaSOnzrMltOPN2Ds2fPVn5+vmviiRWr+ptA5VbdK05cUx40hs//5z3S62fVw+Ng/U+w8hPh4XOy9kfxwsr2cct96ZY4wkW/ZR+7fj+ANZK1fZwcocPooOSRaG2drP0FAMSxORFnu0pLS5WSkkLCDAgiHh9+JAvfRFnVAxE3t5d/bG6OFe7CvRJffNsr0oe1VrZ5oLK4pwDrxfPPFf0WEP+MRtkkUuIC7mbFiDIAAKxCxguwkf9InkCffoV7mGmvQKPSfBNvwcrxf6gUrK5wR5CZPZ57MLEFat9A96YU+N4JtS3Qg9Fg957bRjPGG//REUajW/23B2oboxGqkY6YDRVToPIBtwq3zwsnSWTUR/qXF0lf7Ub0W0B8Cmf6PqeQSElstC8AwE1ImgExQgLNXcw+MLGrvUIl0AI9lDOK18zxRvshcQS7ZwK9b3abmVEDRvu7+cFuvDH7AN9foASAURsF6zf8ywsWU7DXgBtZMVIqkvLt7JfdgH4LAAAAQDwiaeawYH802vkHcSz+2Layjnh5OID4ESrB5DZm4uPBDkKJh3sdxuz4GQ9VptlRr0CyMBodFmlZZsXrzxr9FgAAAIB4k3BJM7c+EAw3rkjOI14/hWqGFQ8mAKv4Pmzx/97Je5SfDwQTbLpQxAer28yKERXcR0BsxOvPGv0WAAAAgHiT4nQAycKJP874gxCwl9frrf4C4gX3a/wINRrdbdwYE2AHpz/M5eafNfotAAAAAPEubkaahbMgdrB1e4J9MjHU4tvBpmMxswi42XWEQs3NbxST/7mbXfA63AW6Q51TOOswmK3bKIZ4UhU/f5y7Q6g1zaJpr2DH+r9XlXTz3z+c+9yoPv8yuAcTW1X7GgnWr/puD7TNTPnB4onXftsJRv2A2XaJpO+IVKi6oy0fiBUr+rxwyzcSTr/sFvRbAAAAABJJXIw0q0qU+I/o8N0W6I/LQMdW7WdUptH+vu/ZcS6hmI0pULnB6gz3+oQbXzBW1e1mwe7ZRDi/eBSsDYK1V6Aygm0zU0+w/YPVFU593IPJxege8H/P6Jhg20KV77uP//4wJ9TPptk2DNQ2wb43c7x/fcFiMtO3AW4R7B41ei/cvwlC/Zz4vw6nX3Ya/RaA8ePHOx0CYsSorbkHAACJJm5GmgUSTnLGCv5/TFm1CLgZRudgRb1GZQdKyAUbaWdn3YATQo3cAgAAkJjmD4B7jB8/XhMnTjR87XQ8icY/YWTmXM1ek0DJqIkTJ0Z9Te0qFwCARBFx0iwlJaX603dO/JEYTtIm3h90W5WgMmL0qVDfuoJdw2jii7ZuwE7cewAAwF+w318BwG1IgtjPriRlVTn+ZVpRfqAyuFcAAPhRxEmzOnXqyOv16tSpU6pdu7aVMdnKyhFMsRplFktGo8v8X9txzqHqBgAAAAAgkfiO+vEd7eObKPHfx+hY/+1myol0pJSZcwkUT7D9EkG4bRfJNfG9R/zrNaonnHLNHMeUjACARBZx0iwtLU2SdPz4cduTZoESN0YJFd/tgfbzne8+1PG++1vFTCLIPzFlNnnkf+5GdZp5L5oFy82+H27diZagBAAAAAAkL6NRSf7JC6ORTGa2G9VlphwzMQdLCpkpP9GnBLT7mgS6TwIlXgPtYyZOs68BAEgkliTNGjVqZFlARsKZBiXYwtpG20MliQJtCyeJE2zh73CPN7stnMXGzZRtVSyRlAUAAAAAQDLwT5iYGdnlBmbjcVvcdnL6mhiVa2bUGQAAycqSpFm8smNEmdGIq3DLT8SpH6PBtQAAAAAAJCOzI8ecFE48iTyyzJcbrkmk5SZLGwEAEEhKpAcmQtKsavrGSJMxRqOkAn1ZVX6y4loAAAAAAJKd08kxqyXi+USbcIr1qDO7jgMAIF5FPdKspKTEsmAAAAAAAACSQdW6U76vze7jvz3Q/r7lmakrkpjD2T5x4kTL4nATo/Nx+ppEWm6o44zOCwCAROHxRjiE5/jx46pXr54++OADDRo0yOq4AEd5PB7NmjVLQ4cOdTqUuFc1ZSmjBd3JbPv47mdXm86ePVv5+flJd6/Q38AMp6YpNqo30adNTtb+KF7QPvAXbZ/kxr6O3w/cjfYBYBb9BQDEnTkRjzSrW7euPB5PXE/PCLhRPCaZ4inmQOsOWh23FdfDvww7rnGkdVQlzhL9oTnM8b8PuC+i599PWXE9jfo+2gvJjp+B6FjVX1nVDvR1gHWMRhIlwsgwAACAYCJOmnk8HtWpU4ekGYC4fAhhZ8xuTMKZEY/tCPfhPoqOnQ92jdZiBZIZPwPRs+KDE1a2A30dYA2SYwAAIFlFnDSTpMzMTB0+fNiqWICEZPQJ3FCfzDUaBdv+K6EAACAASURBVBRo/2Cjp0LV7/vp20hHHoWKNV6Ec63M7h9oP9+yAm0PFJPRdrN1myk3nHZktJn7BLsngt27RtuC3SNG28Otx7+ccM7LjvNwWqifp1DX33d7oHYPVWeo6xKvfTsQjP/vQFWC/YyZ7VfD3e7WvikckV6XQO1gZR9OXwcAAADArKiSZllZWTpw4IBVsQAJJ1jSyf+Pf/8Hm6GSGaESXaGO89/HKvGSQAv1UCbUtTKzv9F+/kKVYaZMq5NX8dKOOJ3Rp/2Nvvd/HWx/M8f5Mru/mXs33HIiPQ+3C/c6hOrvg10HM6+BRBPonjfqI8LtV0OVGc99kxGjcwp1bqH+7wp1nejrAAAAAEQjqqTZmWeeqf3791sVC5BUIvkj3I4/3P0TdVUJmEDvJ5JIzsttn0Y2SsAlSxvCvES9ByL9+Uu0h6BG5xMqAW+2HAA/FSpRY2a72TLimR3nFKpM+joAAAAA0Yg6acZIMyB8kY7iSdQH3/EsFm1i9Ils7gcks2hGAyTSz46VoyIS6boAsWZ2xK3vvv6vE/Fn0OpzsqLPS8TrDAAAAMA6KdEcnJWVxUgzIMEYTREJZ0QyPSJtCJjnphEH/uv5OMktcQDxyIoPQ8Xrz2CwqRfdeE5ujAkAAACAsxhpBtjIaKq8QNuNjgm2f7hlVW2zU7B43CzcaxWsTczsF2lsoe6HSMsM9n4g/p+OhzuYuX/9EzNm29DoON/tgaZ7DbcesyJNMNkdV7QCnZeZvsjqeo36MiDZmOkzzPSPvszs67a+KRijuM1el0h+f4kUfR3cLtSaf4mw3iECc0vbmlnLEwCARMeaZoDNgj24DucYs/ubfdga6lPA4T7AMFO2G4R73a3YbtQ+wfYLdU3NfDo93HaIp3ZEYGb7jlDbzHwf7rFG20LdZ+H8nJiNxe33drjXLZrrHOn1BBKFbyIn0PZQ7wXbZsW+bhduH260PVA7RPJ/C30dkoWbEhhmY3FTzFaK5oOMdgr2oVq3xAgAgFtFnTQ7cuSITp48qdq1a1sVE4AwxeIX9WCfuuWX7uDc+oeU72iycGJilBnsYNTHcJ8BAACcjt+P3MX/Q5JuaZ9wP4wLAAB+FPWaZpJ08OBBS4IBEBmv13valxVlharDqvqSQayvVzj1RBIT7e5O8d4m9C8AACAZVX2Izf8DREbbq97z/dd/u9Hx/scFOz6ceI1eG51TJLHHo0jaNtzjfLeZbb9o4wAAINFZkjT74YcfLAkGAAAAAAAgGfiuWRxotFLVV7hJi2DHRzMSyiheo9f+dZv5UJRRHW7mm1yqitmoDUK1bbD3w90eLKEWbhwAACSTqJJm2dnZ8ng8+v77762KBwAAAAAAIKmZGeUTKBkT6nj/5JbR8cHisiL2aOtwk2gSnIFEOkItWFyB2paRZAAABBbVmma1a9dWVlaWdu7caVU8AAAAAAAASc2Kafet5juKyqiOQMk7q+tIdHZcV7P1AACAKEeaSVLLli1JmgEAAAAAANjAzGizYAmQaI8PdIzdSOj8KFajwBhtBgDA/4lqpJlE0gwAAAAAACBcRtP5BVqzKppyrUpABSrTt65gUxSa3c+OuO0W6rqY2e772sxx0Qo3DgAAkgkjzQDgv5z6o8CoXv5IQTwbP3680yEkvao2SLS2MDqfRDtPIN7xexVgjtG6U0bbfP/1325UbrD9whllZrQ+VrDYA20Ptl+wNbjcKNi6YeFsD9X2RnUZ3QtG18/sPRbq3AAASGSMNAOQlIItiG1VmVXlhjvdCeBG48eP18SJE50OI+H5J36svOa+ZQcrN1ZtHSjJNXHiRO41IA7xexWQWIySzPzsAQCAZGBJ0uzgwYM6fvy40tLSrIgJAGxl58MWo095AvGOJIb97E4WuTEhFSgWN8UHIDR+rwLiGz9nAAAAp7MkaSZJu3btUvv27aMOCEgkwT51G2j+cP9tvnO+BzsO5oWzSLaZ9jK78LZRGwerHwhHVTLENykSaGSR/7aq176JCqPjfPf3f9//OP/YgpVHkiS4SNssnHKNygt2LwUrI5o2D3UPBzsHIFz8rhYdfq8CAAAAkGiiTprl5ORIknbu3EnSDAjA/wFBoDnGA233fyAQ6CEC09NYL9z2CtQmZsoz+xoIh3+ywT+5UfU60D6B3g9UjtH7geoLFQcJs9P5JyV9r020bRaszkDHBSvPyjYPlbgL9zUQCX5Xsw+/VwEAAACIN1EnzerXr69GjRrpm2++sSIeIGlE+oc7f/A7w+y8/qEejNF+sJN/oiTSJILVyQej8kiY/VSkyS+7E0bhlm+2zUOdH4kwOInf1ezD71UAAAAA3CrqpJkknXvuudqyZYsVRQFJIZpPvibzp5WdYuUnlWk/xFIkSSk7Ru+QHLNXLEZchduGVrU59w6cwu9q9uH3KgAAAABulmJFIe3bt9fmzZutKApAGPh0bfh81x9xmlviQHJwy4gdt8SByFk16szuegE3SPT/6/m9CgAAAECisWyk2UcffWRFUUBSiPQBg/9xfLo2MoGuf7BradUDoVDt56YHT4h/wdbHCue4SOuLNo5kFGx9r2DMtpnRmmPByps4caJhG9rd5qHKifReBczgdzXz+L0KAAAAQCLxeC34S27+/Pm6+uqrVVxcrPr161sRF+Aoj8ejWbNmaejQoU6HAiSN2bNnKz8/PykeMPqiv0GiCGcNNrdL1v4oXtA+SAb8fuBudrWP//SlbisP7mfU5twLzqE/B4C4M8eSkWbt2rWTJG3ZskXdunWzokgAAAC4HKMIAQCIHbOJDxIksRNoRGsk197Meo9VI2hpWwAA7GVJ0uycc85R7dq1tXnzZpJmAAAASYJEGQAA7kNSJXaqrrUdyaxA5dG2AADYz5KkWWpqqlq3bq3NmzdbURwAAAAAAEDCM1p7z2jNvqrtvska//0CJXCSbb1FNzDTNr6v/dvWqMxgbW9UPwAAMM+SpJn04xSNJM0AAAAAAABCM5qSL1hixT85YrRfsHpgP6M29J1i0X+fYIlO//eD3SNGrwEAgDkpVhXUvn17/fvf/7aqOAAAAAAAgKTk8Xiqv6zaD7Fl1DZm1yarSrJVfZktHwAARMeypFmnTp20detWlZSUWFUkAAAAAABA0gmVMJFOH70ULAHjO8KJBEvsmGlDN5cPAECysixpdsEFF6iiokIbN260qkgAAAAAAICkZlWii8SKc3zb0Hd6RjvKBwAA0bFsTbNWrVopIyND69at00UXXWRVsYBj8vPzlZ+f73QYAGA5o3UUACn6dU9YTwWJir7Tvei3EK+MEif+233XM6va7jt6LJRAZcFeRm3ovz6d/1pnvvtGUr7R+wAAwDzLkmYej0edOnXS+vXrrSoScMysWbOcDgEA4gYPFa0RbLH3cMuxoj2CPcSjvYHoJcLPEv0WED2je9Ps9kD7+SZlgpUF6wRrh2DbfF8bfW9m/3DKAAAAwVmWNJN+nKJx5cqVVhYJOGLo0KFOhwAAcYM/yK3jey0jfchrZXuYfQAEIHyJ8rNEvwUAAAAgkVi2ppkkdenSRRs3blR5ebmVxQIAABOqFnf3XzMh0kXffY/1LzPQv3bEkMz8p9Uxuo7+233/9d8e6lgzwmlb2h7xgL7TOvRbAAAAAOKdpUmzCy64QCdOnNCWLVusLBZADCxdulRDhw5V06ZNlZ6erpycHA0fPlwbN250OjQAJviuh+C/ZkI4a174Mzo+0GgCu2KA8XUMdM19+e4fqA1CtY3Rw/9gMRm9D7gRfad96LcAAAAAxCNLk2YdOnRQrVq1WNcMiCOVlZW655571K9fP82dO1d79+7VsWPHtHPnTr322mvq0qWLJk+e7HSYAEwI9fDQSuE8TORT+9aw4zqGKtP34XGgNqdtkQjoO+1DvwUAAAAg3liaNKtZs6Y6dOigdevWWVksABtNmDBBL730kiT9ZGrVsrIyVVZW6uGHH9Zbb73lRHgATPL91LzRJ/Kd+tS8G2JIBFZfRytGVNC2iHf0nfai3wIAAAAQbyxNmknShRdeqDVr1lhdLAAb7Nu3T5MmTVJFRUXQ/Twej0aPHh1yPwDOC/YA0A2fqndDDPEi0DRuvu+5jRtjAsyi77QG/RYAAACAeGd50qxnz55atWqVysrKrC4agMU++OADVVZWhtzP6/Xqhx9+0BdffBGDqABEwne6qaoHlr6jJ4I9yAy3XCP+9VkVQzIxulZG1zHQNTcrmmODxWRV+UAs0HdGj34LAAAAQCKxJWl24sQJbdiwweqiAVhs27ZtqlGjhql9U1NTtW3bNpsjAhApo6mmAm33fXAZSbmB6gi1P9NghRZqyjCzbRyofYN9b+Z4//qCxRSqfMBN6DujQ78FuMv48eOdDgEOibbtjY7nngIAJCNzT8vD0L59ezVo0EArVqxQ165drS4egIXCfRDAgwMgMfFpegAIH30ngGiNHz9eEydOtGw/xJ5/UinSdrKqjQMluSZOnMg9BABAGCxPmnk8HnXv3l0rVqzQ/fffb3XxACzUqlUr0+uUVVRUKDc31+aIADiBhDgAhI++EwAgnZ4oizQ5ZWVCK1BZJMwAADDP8qSZ9OMUja+99podRQOw0JVXXmn6gU/Dhg3Vs2dPmyMCAAAAgORRNTKoKqnhO1LIPxljZj8zdQUr378OKxJCycR/VFeo9vQ/JtD2UMeaYSamQOUDAJCMbEuaTZgwQfv27dPZZ59tRxUALJCdna177rlH06ZNCzrizOPx6Pe//73p9c8AAAAAAKEFS0r5vvZPbkSazDJTPskxaxi1Z6jrGyhpGU5bhUqOhvsaAIBkY8sT8B49eiglJUUrV67UddddZ0cVACxQUlKir776So0aNdKBAweUkpJyWvKsRo0aqqio0Pjx43XnnXc6GCkAAAAAoIrVyYxQa2GRSIuMHUmnUGWGaicSYQAABGdL0qx+/fpq3769VqxYQdIMcKnS0lLdcMMN2rx5s5YuXapt27Zp6tSpWrFihUpKSpSRkaHLLrtMjzzyiHr16uV0uAAAAAAAWT8aiNFF9rE60WhFW5H8BAAguBS7Cu7Vq5dWrFhhV/EAolBWVqYbbrhBy5cv10cffaSOHTvquuuu06JFi3T8+HFVVFSoqKhI7777LgkzAAAAAEhSjDILT7Br5cZkpBtjAgDAabYtUHTJJZfotddeU0lJierWrWtXNQDCVFFRoVtvvVWffPKJFi5cqK5du/5kn5QU2/LpAAJ49tlnNWfOHKfDAPBfhYWFTocAE4YMGeJ0CAAQlaqEVNX3vq+rtpnZLxyhykf4Al3Tqu/NXO9wEpLRtlWourkXAACQPF6v12tHwYWFhWrevLkWLVqk/v3721EFgDBVVlZq2LBhmjt3rj744ANdeumlTocEJD0e+gLuRTLbnVasWKHJkyc7HQZgu4ceekg9e/Z0OgwE4PF4NGvWLA0dOtTpUMISyYgxRpkB0YnX/gIAktgc20aaZWdnKzc3V0uXLiVpBriA1+vVfffdpzlz5ui9994jYQa4BA/lASA8PXv2pO8EgCAYKQQAABA525JmktSvXz8tXbrUzioAmPTrX/9ar7zyit59910NGjTI6XAAAAAAADawcmQYo8wAAECysXXhor59+2rVqlU6fvy4ndUACGHs2LF67rnn9Prrr+uqq65yOhwAAAAAAAAAAFzH1qTZZZddptLSUi1fvtzOagAE8dhjj+kPf/iDXnvtNeXn5zsdDgAAAAAAAAAArmRr0qxJkyZq06YNUzQCDpk8ebImTpyov/zlL/rlL3/pdDgAAAAAAAAAALiWrUkziXXNAKc8//zzeuSRRzR16lTdfffdTocDAAAAAAAAAICr2Z4069u3r1avXq1jx47ZXRWA/3rllVc0evRoPf3007rvvvucDgcAAAAAAAAAANezPWl22WWXqby8nNFmQIzMnDlTw4cP1+9+9zuNGTPG6XAAAAAAADYYP368K8q1Kw64i1E70/4AgERTw+4KzjrrLHXp0kUFBQW66qqr7K4OSGrvvPOO7rzzTo0ePVrjxo1zOhwAAAAAgEPGjx+viRMnOh2Ga+Kwg3/CyMx5mr0egZJREydOjPp62lUuAACJwvakmSQNHDhQb731ll544YVYVAckpffff1833XST7rvvPv3pT39yOhwAAAAAABKeb6LJysRTVTn+ZVpRfqAySJgBAPCjmCTNrrjiCj399NPavn27cnNzY1ElkFQWLlyoG2+8Ubfeequee+45p8MBAAAAAITgnwypeh1s9JKZKfIC7e+bgAmn3GCx2xFHvPMfsWXH9Qh0n/i+NmpXs+WaOY4pGQEAiSwmSbOLL75YGRkZ+uijjzRy5MhYVAkkjWXLlun666/X0KFD9de//lUej8fpkAAAAAAAUTBKpplJiPjuF2wUlJlyA7ErjkRk9/UINBotWLsGSoqFG0+49wsAAPEmJkmzGjVqqF+/fiooKCBpBlho5cqVuvLKKzVw4EC9/PLLSklJcTokAAAAAECMmU1c2J3gcEscbuH09TAq18yoMwAAklVMkmbSj1M0PvLIIzp16pRq1aoVq2qBhLV+/XpdeeWV6t+/v/7+97+rRo2Y/TgDAAAAAFwinJE/do7ockscbuGG6xFpucnQPgAAGInZsJSBAwfq+PHjWrZsWayqBBLWxo0b9bOf/Ux5eXl66623dMYZZzgdEgAAAAAgjrhlNJFb4rCCFVNNxnrUmV3HAQAQr2I2NCUnJ0fnnnuuCgoK1L9//1hVCyScrVu36vLLL1f79u01d+5cRm4CAAAAQByqWncqkEDrhBntb2b7xIkTf7JfqHLDjTvaOOKV0bk4fT0iLTfUceHeLwAAxBuP1+v1xqqyBx98UAsWLNCmTZtiVSWQULZv364+ffqoZcuWWrBggerVq+d0SAAAAACQVDwej2bNmqWhQ4faUr4Vo5UAuIPd/QUAwHJzYroI0jXXXKPnnntO27ZtU5s2bWJZNRD3vv/+ew0YMEBZWVn65z//ScIMAAAAAGAbo9FEJPQAAEAii2nSrE+fPmrUqJHmzZunhx56KJZVA3Hthx9+0IABA5Senq5FixapQYMGTocEAAAAALCBW5JSbokDAAAgllJiWVlqaqoGDhyof/zjH7GsFohrBw4c0GWXXSav16uCggI1atTI6ZAAAAAAAAAAAEg4MU2aST9O0bhs2TIdPHgw1lUDcaeoqEgDBw5UaWmpPv74Y5199tlOhwQAAAAAAAAAQEKKedLsyiuvVI0aNfTBBx/Eumogrhw5ckSXX365Dhw4oIULF6pp06ZOhwQAAAAAAAAAQMKKedKsXr166tu3L1M0AkGUlJTo6quv1p49e/Txxx8rJyfH6ZAAAAAAAAAAAEhoMU+aST9O0VhQUKCTJ086UT3gaidOnNBVV12lf//731qwYIFyc3OdDgkAAAAAAAAAgIRXw4lKr732Wt1///36+OOPNWjQICdCAFyptLRUQ4YM0bp167RkyRJ16NDB6ZAAAAAAAH6effZZzZkzx+kwAAAAYDFHRpo1a9ZMF154oebOnetE9YArVVRU6JZbbtGyZcu0YMECXXDBBU6HBAAAAADwc8MNNyg7O9vpMADEgRtuuEHNmzd3OgwAQBg8Xq/X60TFTz/9tCZPnqy9e/eqRg1HBrwBrlFRUaFbb71V77//vj766CNdcsklTocEAAAAAAAAAEAymePISDNJys/P18GDB7V06VKnQgBcwev16p577tF7772n+fPnkzADAAAAAAAAAMABjiXNWrVqpQsuuIA5wJHUvF6vRo4cqZkzZ2rOnDnq16+f0yEBAAAAAAAAAJCUHEuaSdKQIUP07rvvqry83MkwAMeMGTNGL730kubMmaOf//znTocDAAAAAADCVFpaqr179+rYsWNOhwIAAKLkaNKsaorGTz75xMkwAEeMGzdOkydP1syZM3XNNdc4HQ4AAAAAAAjDggUL1LdvX6Wlpalp06ZKT09XmzZtNHnyZJWWljodHgAAiIDH6/V6nQzgwgsvVPfu3TVt2jQnwwBi6sknn9SECRM0Y8YM3XXXXU6HAwAAAAAAwjB27Fg988wzSk1NVUVFxWnvpaamqlOnTlqyZIkyMzMdihAAAERgjqMjzaQfp2h85513mKIRSeO5557ThP/f3t0HS1Xf9wP/7A0gFkytVI2SxBCmrZbWabRmhJlWkWAAsYNTQCgyxkQIuVEkSBQNPvxQf1ZFINHgM0HSaG6AEkWjgAbNOEY70zY2TDrR6jTRxvqQNtKEJkTY/mFvutns892937O7r9cM492z5+G951zn7p73+Z69+upYt26dwgwAAADazL333hs33nhjRMRvFGb903bv3h3nnHPOYEcDAAYo+Uizl156KcaOHRuPPfZYTJo0KWUUaLkvfvGLceGFF8aNN94Yy5YtSx0HAAAAqEM+n4/Ro0fHv//7v0ctp9T+7u/+Lk466aRBSAYANEH6kWYf/OAH44QTToi+vr7UUaClNmzYEIsXL47rrrtOYQYAAABtaPfu3fHqq6/WVJgNGzYsHn744UFIBQA0S/LSLCJizpw5sXnz5vjFL36ROgq0xObNm+P888+PK664Ii677LLUcQAAAIAG/OAHP6h53v3798e//uu/ti4MANB0mSjN5s2bF3v27IlHHnkkdRRouq1bt8bcuXPjwgsvjKuvvjp1HAAAAKBBw4YNq3nenp6eOOigg1qYBgBotkyUZkcffXT8+Z//eXzlK19JHQWaavv27TF37txYtGhRrFmzJnUcAAAAYAD+4A/+oK75jz322BYlAQBaIROlWcQ7o80eeuih+MlPfpI6CjTF448/HjNmzIi5c+fG5z//+dRxAAAAgAE65phj4sQTT4x3vetdVec9cOBAnHXWWYOQCgBolsyUZrNmzYpcLhdbt25NHQUG7Omnn44ZM2bEmWeeGXfffXf09GTmfzUAAABgAG655ZbI5XKRy+XKztPT0xPLly+PD3zgA4MXDAAYsMycyX/3u98dU6dOdYtG2t6zzz4bU6ZMicmTJ8d9991X09VnAAAAQHsYP358bNmyJUaMGBFDhw79teeGDh0auVwuLrzwwli5cmWihABAo3L5fD6fOkS/v/3bv41Zs2bFD37wg3jve9+bOg7U7bnnnovTTjstTjrppHjggQd84S8AAAB0qNdffz3uvPPOeOSRR+KFF16IUaNGxamnnhoLFiyIE044IXU8AKB+mzJVmu3bty+OOuqouPzyy+Piiy9OHQfq8v3vfz9OOeWU+OM//uPYtm1bDB8+PHUkAAAAYBDkcrno6+uL2bNnp44CADRuU2ZuzxgRMWzYsPjLv/zL2LhxY+ooUJcXXnghJk6cGGPHjo2tW7cqzAAAAAAAoM1kqjSLiPjYxz4W//RP/xT/8A//kDoK1OSHP/xhTJ48Od7//vfHo48+GiNHjkwdCQAAAAAAqFPmSrMJEybEscceG1/60pdSR4GqXnnllZg4cWIceuih8Y1vfCMOOeSQ1JEAAAAAAIAGZK40i4g499xz47777ouf//znqaNAWa+//nqcfvrpMXTo0Ni+fXscdthhqSMBAAAAAAANymRp9rGPfSz27NkTDz74YOooUNKbb74ZkyZNirfffjt27doVRx55ZOpIAAAAAADAAGSyNHvPe94TH/3oR92ikUx66623YsqUKbFnz57YuXNnHHXUUakjAQAAAAAAA5TJ0iwi4rzzzosdO3bEyy+/nDoK/MrPfvazmD59erz22mvxxBNPxDHHHJM6EgAAAAAA0ASZLc3OPPPMGDVqVHz5y19OHQUiImLv3r0xffr0eP7552Pnzp0xZsyY1JEAAAAAAIAmyWxpNmzYsPirv/qr+NKXvhT5fD51HLrcvn37YubMmbF79+745je/Gccee2zqSAAAAAAAQBNltjSLiPj4xz8e//Iv/xK7du1KHYUu9stf/jJmzpwZTz/9dDz66KMxbty41JEAAAAAAIAmy3Rpdvzxx8fJJ58cd955Z+oodKn9+/fH/Pnz48knn4wdO3bEiSeemDoSAAAAAADQApkuzSIiFi5cGFu3bo3XX389dRS6zIEDB+Lcc8+Nbdu2xYMPPhgf/vCHU0dqulwu19Bzja4z5boAAACA5mjF+YRmLd+sdQDQnTJfms2ZMydGjBgR9957b+oodJF8Ph+9vb2xadOm2Lx5c5xyyik1LZfVN2X15srlcpn4LsF8Pp/ZfQoAAACtkpXPws4nANBtMl+aHXzwwTFv3ry444474sCBA6nj0CU++9nPxvr162PLli0xderU1HEGLAtvWAEAAID24nwCAN0m86VZRERvb2+8+OKLsWvXrtRR6ALLly+PtWvXxpe//OWYPn16RLxzpVT/v36lphVOr3W+Wubv/7n4v8XPl1NLnsLnC98UV9pWpXU1slyp6a4OAwAAoB0Vf8at93NyrecLirdRy2ftcplKvYZK6ymet7hkq3Xb9ZwnqHV55xMAaERblGbHHXdcTJgwIe68887UUehwV155Zdx0001x7733xtlnnx0R//emr/9fv8JpxW/K+ucrXrbwjV2pdZabv/C5gSi33UaVy1pPhmr7BAAAANpNPZ9xq513KDVPqfMQhfOU+6zd6HmGRj6z17rtgZ4jcT4BgGZqi9IsImLhwoWxdevWePXVV1NHoUOtXr06rr322rjtttti3rx5VeevdoVVvfNVU/zGufgNcKtU2lajr63SFWQAAADQbVr5ebjcZ/CUBVM9xVst2Z1PAKBZ2qY0mz17dowcOTI2bNiQOgod6Atf+EIsW7Ysbr311li4cGHV+eu5iqlwvk664mkgV3KV2ieFV455swsAAEC3aPXn4XY+L1FLducTAGimtinNDj744DjvvPPi9ttvj7fffjt1HDrI+vXrY8mSJXH99ddHb29vS7fVzDdvhbdeaLVWbitLV7oBAABAdU4/wAAAGyhJREFUKoPxebidS6Vq2Z1PAKAZ2qY0i4jo7e2NV155JbZt25Y6Ch1i48aNsWDBgrjmmmvi0ksvLTlP4dVK/W/QSk0rnl5qvsJRVdWWb0VJVW67peYZ6LrqfY3lXvdgFYMAAADQLPWcS6h23qDUsrV+Tm7WeYZGzifUuu2BniNxPgGAZmqr0mzs2LExderUuPXWW1NHoQNs2bIlPvGJT8SSJUvic5/7XMV5K30hb6Uv6i23bL3TS73Jq/dNcrXc9ayj0rrq2Ue17CcAAABoR7WeS6h2fqDa+mr5uZbzDOVeQ6XstSxfy7brPX9QbRsA0Ki2Ks0iIj796U/HN7/5zfjud7+bOgpt7IEHHoi5c+dGb29v3HzzzUkytGJEWeE6q10BVkmto81azVVhAAAA0HrOJwDAO9quNJsyZUr8/u//ftx+++2po9Cmdu7cGXPmzIn58+fH2rVrk+UY6JVQtVyZ1ez1D7YsZAAAAIBO53wCALyj7UqzXC4XixYtio0bN8Zbb72VOg5t5qmnnoqzzjorZs+eHXfddVcmrn4CAAAAAADSa7vSLCLivPPOi3w+Hxs2bEgdhTbyzDPPxLRp02LKlClxzz33RE9PW/76AwAAAAAALdCWrcGhhx4a55xzTqxbty4OHDiQOg5t4Dvf+U5MmzYtJk2aFPfff38MGTIkdSQAAAAAACBD2rI0i4i48MIL44UXXoiHHnoodRQy7rvf/W585CMfiT/90z+Nr371qzF06NDUkQAAAAAAgIxp29Js3LhxMXXq1Lj55ptTRyHDnn/++Tj99NPjuOOOi61bt8ZBBx2UOhIAAAAAAJBBbVuaRURcfPHF8a1vfSueffbZ1FHIoBdffDEmTpwYY8aMiUceeSRGjBiROhIAAAAAAJBRbV2anXbaaXHCCSfEmjVrUkchY15++eWYPHlyHHHEEfHwww/HyJEjU0cCAAAAAAAyrK1Ls4iIpUuXxubNm+Oll15KHYWMeO2112Ly5MlxyCGHxGOPPRa/8zu/kzoSAAAAAACQcW1fmp199tkxevTouOWWW1JHIQPeeOONOO200yKfz8f27dtj1KhRqSMBAAAAAABtoO1LsyFDhsTixYvjrrvuiv/4j/9IHYeEfvKTn8SUKVNi3759sWvXrnjPe96TOhIAAAAAANAm2r40i4hYuHBhDBkyJO66667UUUhkz549cfrpp8cbb7wRO3fujKOPPjp1JAAAAAAAoI10RGl2yCGHxIIFC+ILX/hC7Nu3L3UcBtnevXvjzDPPjB/96Eexa9eu+MAHPpA6EgAAAAAA0GY6ojSLiFiyZEm8+eab8dWvfjV1FAbRf//3f8f06dPjn//5n2PHjh0xduzY1JEAAAAAAIA21DGl2ejRo2PWrFmxatWqyOfzqeMwCPbt2xezZs2Kf/zHf4zt27fHH/7hH6aOBAAAAAAAtKmOKc0iIi655JLYvXt3PPbYY6mj0GL79++Pc845J5566qnYsWNHfOhDH0odCQAAAAAAaGMdVZodf/zxcdppp8XNN9+cOgottH///pg/f348/PDDsW3btjjppJNSRwIAAAAAANpcR5VmEREXX3xxbN++PZ577rnUUWiBfD4fixYtiq9//evx0EMPxZ/92Z+ljgQAAAAAAHSAjivNpkyZEscff3ysXbs2dRSaLJ/Px6c//enYuHFjbNq0KSZOnJg6EgAAAAAA0CE6rjTL5XJx0UUXxX333Rf/9m//ljoOTXTppZfG3XffHZs2bYozzjgjdRwAAAAAAKCDdFxpFhExb968OOKII+Kmm25KHYUm+dznPherV6+OjRs3xl/8xV+kjgMAAAAAAHSYjizNDjrooLjkkkvijjvuiFdffTV1HAZo5cqVcf3118ftt98ec+bMSR0HAAAAAADoQB1ZmkVELFiwIA477LBYs2ZN6igMwNq1a+Pqq6+OdevWxfnnn586DgAAAAAA0KE6tjQbPnx4LF26NNatWxdvvPFG6jg04Itf/GIsXbo0brzxxli0aFHqOAAAAAAAQAfr2NIsImLRokUxYsSI+PznP586CnXasGFDLF68OK677rpYtmxZ6jgAAAAAAECH6+jSbMSIEbFkyZK45ZZb4j//8z9Tx6FGmzdvjvPPPz+uuOKKuOyyy1LHAQAAAKjoa1/7WowfPz51DABggHL5fD6fOkQr7dmzJ8aMGRMXXXRRXHnllanjUMXWrVtj9uzZccEFF/g+OgAAAAAAYLBs6uiRZhER7373u2Px4sWxZs2aeOutt1LHoYLt27fH3LlzY9GiRQozAAAAAABgUHV8aRYRsWTJkoiIuO222xInoZzHH388ZsyYEXPnzvUddAAAAAAAwKDritLst3/7t6O3tzdWrVoVP/3pT1PHocjTTz8dM2bMiDPPPDPuvvvu6Onpil9LAAAAAAAgQzr+O836/fjHP44xY8bE1VdfHUuXLk0dh//17LPPxuTJk+MjH/lIfO1rX4shQ4akjgQAAADJ5XK51BGgo/X19cXs2bNTxwAgWzZ1TUMxatSo+OQnPxk33XRTfOpTn4qDDz44daSu99xzz8W0adNiwoQJcf/99yvMAAAAoMCSJUti/PjxqWNAxzn77LNTRwAgo7qqpVi2bFmsW7cu7rnnnrjgggtSx+lq3//+9+OjH/1onHDCCfH1r389DjrooNSRAAAAIFPGjx8fS7esSx0DOsrtn7k6dQQAMqyrvjzqyCOPjPPPPz9uuOGG+MUvfpE6Ttd64YUXYuLEiTF27NjYunVrDB8+PHUkAAAAAACgy3VVaRYRcckll8Qbb7wR69evTx2lK/3whz+MyZMnx/vf//549NFHY+TIkakjAQAAAAAAdF9pNnr06PjkJz8Z11xzTezduzd1nK7yyiuvxMSJE+PQQw+Nb3zjG3HIIYekjgQAAAAAABARXViaRUSsWLEifvrTn8a6de4LPlhef/31OP3002Po0KGxffv2OOyww1JHAgAAAAAA+JWuLM0OP/zwuOCCC+Kv//qvY8+ePanjdLw333wzJk2aFG+//Xbs2rUrjjzyyNSRAAAAAAAAfk1XlmYR73y32YEDB2LNmjWpo3S0t956K6ZMmRJ79uyJnTt3xlFHHZU6EgAAAAAAwG8YkjpAKoceemgsXbo0brjhhujt7Y3DDz88daSO87Of/SymT58er732WnzrW9+KY445JnUkAAAAoIu80vfEb0x779mnNnXdzVofAJBe1440i4j4zGc+EyNGjIhVq1aljtJx9u7dG9OnT4/nn38+duzYEWPGjEkdCQAAAOgihaVW4b9SRRoAQEQXjzSLiBgxYkRceumlcfnll8fixYtj9OjRqSN1hH379sXMmTNj9+7d8cQTT8Rxxx2XOhIAAADAryk1Uqx4WnHBVmp6tWVqea5weqk8ldZVuHy13ABAZV090iwi4lOf+lQcfvjhcf3116eO0hF++ctfxsyZM+Ppp5+ORx99NMaNG5c6EgAAAMCv1FoglRqpVqpo63+u3DKF08stU2reWtdV7rHRdQBQv64vzYYPHx5XXHFF3HnnnfHSSy+ljtPW9u/fH/Pnz48nn3wyduzYESeeeGLqSAAAAAADUm4UWFYUl2r9sp4bALKo60uziIiPf/zj8cEPfjBWrlyZOkrbOnDgQJx77rmxbdu2ePDBB+PDH/5w6kgAAAAADSu+TWKq0Vr92651+1nJDQDtSGkWEe9617viyiuvjL/5m7+J733ve6njtJ18Ph+9vb2xadOm2Lx5c5xyyimpIwEAAACUVE+JVDyCK0UBVTiSrNSIskrL9FOcAUBtlGb/a86cOfFHf/RHcdVVV6WO0nY++9nPxvr162PLli0xderU1HEAAAAA6lbpu8KydHvDagVYVnMDQDsYkjpAVvT09MTKlStjxowZ8fd///e+j6tGy5cvj7Vr18ZXvvKVmD59euo4AAAAABHxTmFU6vaE/UVS8fP9j4uXL7VsueWrbbOZ+astN9DtA0A3yuXz+XzqEFmRz+djwoQJMXLkyNi5c2fqOJl35ZVXxnXXXRcbN26MefPmpY4DAAAAHSOXy0VfX18s3bIudRToKLd/5uo4c/zE6Ovri9mzZ6eOA0C2bHJ7xgK5XC5Wr14djz/+eDzyyCOp42Ta6tWr49prr43bbrtNYQYAAAAAALQ9pVmR8ePHx4wZM+Liiy+Ot99+O3WcTLrlllti2bJlceutt8bChQtTxwEAAAAAABgwpVkJN910U7z44ouxYcOG1FEyZ/369XHRRRfF9ddfH729vanjAAAAAAAANIXSrISxY8fGwoULY8WKFfFf//VfqeNkxsaNG2PBggWxcuXKuPTSS1PHAQAAAAAAaBqlWRlXXXVV/PznP4/Vq1enjpIJW7ZsiU984hOxZMmSWLFiReo4AAAAAAAATaU0K+N3f/d3Y/ny5bFq1ap49dVXU8dJ6oEHHoi5c+dGb29v3HzzzanjAAAAAAAANJ3SrIIlS5bEqFGj4qqrrkodJZmdO3fGnDlzYv78+bF27drUcQAAAAAAAFpCaVbB8OHD45prron169fH7t27U8cZdE899VScddZZMXv27Ljrrrsil8uljgQAAAAAANASSrMq5s2bF3/yJ38Sy5cvTx1lUD3zzDMxbdq0mDJlStxzzz3R0+NXBQAAAAAA6FyakCp6enpi1apV8fDDD8djjz2WOs6g+M53vhPTpk2LSZMmxf333x9DhgxJHQkAAAAAAKCllGY1OPXUU+OMM86IZcuWxYEDB1LHaam9e/fGtGnT4uSTT46+vr4YOnRo6kgAAAAAAAAtZwhRjW644Ya49957Y9++fTF8+PDUcVrmt37rt2Lz5s3xoQ99KIYNG5Y6DgAAAHS1V/qeSB0BAKBrKM1qNG7cuLjxxhtTxxgUEyZMSB0BAAAAaLFcLhcREfl8PnESqPz76HcVgMGiNAMAAADoUMqG9tV/7Ar1H8d6j2vhuupdppFtFG7L7yAA7URpBgAAANChFBXtr7Aoy+Vykc/nM31ci7NlOSsAFBtQafbtb387Xn755WZlgQF73/veF+PHj08dAwAAADKheJRPqdFAtJ9ajmupUWmFxVul9RQWXdW2Va0Ua3R5v6sApDCg0mz16tWxefPmZmWBAZs5c2Zs2rQpdQwAAADIHAVae6p2a8VWH9dqBVphCVctby3Ll5sPAAbDgG/POHPmzLjs//+/+NGPX29GHmjI0aOOiOsvvyp1DAAAAICmqlYwZU0t+ZRgAGRVU77T7I6H+uLhZ55sxqqgIWecfErqCAAAAACZUlhOFf+csnzLevEHQPdqSmkGAAAAAGRTudsnAgC/TmkGAAAA0AXy+fyvbvFH+6j2nWYDOa6Vli1+Lp/Pl5y/nlFj5bZXvA6/qwCkojQDAAAA6FClygjaQ6VjVem41lKyNbqdSvPXOn2g8wFAKynNAAAAAKCNVRu5BQDURmkGAAAAAG1MSQYAzdGTOgCt90rfE/FK3xOpYwAAAAAAAGSWkWZllCqZ3nv2qXUvX88yAAAAAAAApKE0K6Fc4fVK3xNtWYK1Y2YAAAAAAIDBpDQbgOLRaP3lVOH04gKu2gi2crdRrGX5wm2V+7mRDEo3AAAAAACg0ynN6lBcLBU/7p9Wqqjqn6fUtP7lKi1Ty/KllinWaAbFGQAAAAAA0MmUZg3KconUjGyFRVmWXysAAAAwcLlcLvL5fM3TSSvVcfF7AkCnU5o1qNJorlYu2yyVbgPZ/1y573YDAAAAYHDkcrlfe9yMcqp4nf3rVX4B0O2UZnWo9TaK1WShhKqUofi7z9yeEQAAAGDwtbLEKrVehRkA3a4ndQDKF26DOSKteHRZRDbKPQAAAGBgcrncr/41Or3/5+Jp9Sxfal7Kq1aYDfT4lVtntfXX+jwAtCMjzUroH01WXFoVfsdXqecrreO9Z59a93oLR7XVkquZr63R9QMAAADZUli89BcxxYVMYalSanrxc6XmK3d7P7f8a41S+7/S9ErHttJytT4GgE6gNCujWlFUS5FUap6BrreW2ypWm96M1wYAAAC0h2YVGqXKsHLbU5ylU+64FO//asdDEQZAN3J7xgwZzNsxAgAAAJ2vv6zq/9dMhestHOXUP+Ksv3QpNY3WaObxLnV8AaDTGWmWIaVujdg/HQAAACCrikeS9ZdkhUpNo7xyt7tMISs5AKDVlGYZoyADAAAAmqVcUVXv9GrzFX5vVi3TqE258rGe+Zux3VK3dlSAAtCJlGYAAAAAHaxcyVLP9GZPo3a17NPiUX71zN/oehxXADqR7zQDAAAAAACg6ynNAAAAAAAA6HpKMwAAAAAAALqe0gwAAAAAAICupzQDAAAAAACg6ynNAAAAAAAA6HpDmrGSE39vXDNWAw078ffGxc6nv5c6BgAAAAAA0KaaUpotnD67GauBAdl576bUEQAAAAAAgDaV+dsz5nK5yOVyqWPQoErHz7EFAACA9uTzfPsa6LGrdJ4HANpdU0aaDVT/H9V8Pp84SeuVegPR/7rr3Q+F66p3mUa2UbitbjpmAAAAwDtyuZxzAYOk0jmkRtdXuHylcz6OMQDdKhOlWTf+IS4syvrfjGR5PxRny3JWAAAAoDWcDxhczdzfpdZV6zQA6BaZKM2KRy1163DuWvZDqVFphcVbpfWUupqo3LaqvUFqdPluPbYAAACQSqk71RRPq3TuoHg5pUparT52pc4xFa+/1HYAoBNkojQr1C0FWq1vOlq1H6oVaJWG7BfnrWX5cvMBAAAArVPq833/41JlSqnnS62HwVHufEyzjl2li6Ar/e6UewwA7S5zpVm3qFYwZU2tVyIBAAAA2dLo53Wf89Nr9HxRrceu1jsNAUC3UJq1ocI3LMU/pyzfsl78AQAAQDdq5PO6UUTtq5nHzrkeALpNT+oANC6fz//qHwAAAEA1yi8a5XcHgG6QuZFm/V9g2ul/iKt9p9lA9kOlZYuf6y/diuevp4grt73idXTLsQUAAICs6P8sXvi4keVIo9q5llKadeyq/e74HQGgE2WiNCv1R7dTVXptlfZDLSVbo9upNH+t0wc6HwAAANAa1c4D1PJz8TSf71uvlnMtAzl29a6/1ucBoJ1lojSjtEauJgIAAAAAAKB+SrMMU5IBAAAAAAAMjp7UAQAAAAAAACA1pRkAAAAAAABdT2kGAAAAAABA11OaAQAAAAAA0PWUZgAAAAAAAHQ9pVmG5HK5TG03VR4AAAAAynMOCQBaY0jqAN2q+M1EPp9v+jr715vL5ZqyfgAAAAAGl3NIADB4lGYJtPINSKn1erMDAAAA0H6cQwKAwZWJ0qzSFTOFz/VPL57W/7jacllQ7c1Oudzl9kMtVwEVPl9tvxhODwAAAJ2jm865dBrnkABg8GWiNIv4zT/u/Y+rTS/+Y17qDUA7DS2vdz+Ueq21rK/WxwAAAEB7c86lMzmHBADNl5nSrJxG/+h22h/rcq+n+I1ptTeqnbZfAAAAgMY459KZnEMCgMZlujQbyFUrnXSVUzOv3umk/QIAAAA0xjmXzuQcEgAMTE/qAIMhS1fGFN4PPLWs5AAAAADak3MLreMcEgAMvkyPNGv0zUHxclm7MqbU66qUsVlvkqrtlyy9GQMAAABap1PPuXQa55AAYHBlojSrdE/lUm8Eyj1fbbksqfa6ih/XO3+j68n6fgMAAABq143nXDqNc0gAMHi64vaMAAAAAAAAUInSDAAAAAAAgK6nNAMAAAAAAKDrKc0AAAAAAADoekozAAAAAAAAup7SDAAAAAAAgK6nNAMAAAAAAKDrDRnoCjZv3hy5XK4ZWWDAZs6cmToCAAAAZF4ul4t8Pp86xoB1yuuoV6rXXW673XocAOg8AyrNli5dGrNmzWpWFhiw973vfakjAAAAADRN8cXqzSinSl0An8/nlV8AdL0BlWbjx4+P8ePHNysLAAAAAPC/WllilVqvwgyAbjfg2zMCAAAAkE2VRikVPldteiPrqSdPcTnU/7h43f2PB/I62mVEVbWMrXjdhc9XO66+rgWATqQ0AwAAAOhgpcqoctPLlVeNzF9vnmrzFxc6jeZqh8KsFvUcp+Kf+x/Xsr5aHwNAJ1CaAQAAANCwrBYm5XJ1QmFWSa2vu95RgQDQDZRmAAAAADQsqyVUVnO1UjNHgHXj/gOAntQBAAAAAOgMWR2dlNVclRR/p1tKWckBAK1mpBkAAABAByssPGr5/rBWzl/reupRavvNypVaqf1S6bU0q2irtv+yVOgBQDMpzQAAAAA6WKmSpdL3WzVj/lqz1LPdUj9XK5BqmZZ1rT5+ja6nHfclAFSjNAMAAACgqcqNQlK0AABZpjQDAAAA6FCpSirlGADQjnpSBwAAAAAAAIDUlGYAAAAAAAB0PaUZAAAAAAAAXU9pBgAAAAAAQNdTmgEAAAAAAND1lGYAAAAAAAB0PaUZAAAAADVZsWJFR28zxevLuoHuk3LL29cAZNGQ1AEAAAAAaI0VK1bEtdde27T5GDzFpVKjx6dZx7ZUyXXttdf63QGgoyjNAAAAACCDCsuoRsupZhZapdalMAOgkyjNAAAAADpY/wih/nKjcMRQcSlTy3y1bKt4ueLCp/9x8X/Lbbda5lqm1zJvltWyn0pNL9zHxdOrLVuLWjKVWj8AZJHSDAAAAKCDVRqtVPi4uORodJRTvcsVly7VRjOVy1yqgCuXo9y87VLq1Pp6ipXaz9X2Z/F2S62vUqZKjwEga5RmAAAAAPyGwSo1BnJ7v3IZayl82l0rXk+1ddZSgAJAO1OaAQAAAPBr2mFUULmMxbcKLDeSrt01+/U045h32j4GoPv0pA4AAAAAAM1WqcDJYglYTaVbL2bx9WQxEwBUY6QZAAAAQIfq/56r/p8LH/dPq2W+elRbf615C5evZd56tl9vrlTK7YtaX089I78Gui+qbTvr+xoAIiJy+Xw+nzoEAAAAAP8nl8tFX19fzJ49O3WUulQaDQVZ0a7/fwHQcpuMNAMAAACgLkYMAQCdSGkGAAAAQF2MJgMAOlFP6gAAAAAAAACQmtIMAAAAAACArqc0AwAAAAAAoOspzQAAAAAAAOh6Q1IHAAAAAOA3ffvb304dAQCgq+Ty+Xw+dQgAAAAA/k8ul0sdATpaX19fzJ49O3UMALJlk5FmAAAAABnjGmcAgMHnO80AAAAAAADoekozAAAAAAAAup7SDAAAAAAAgK6nNAMAAAAAAKDrKc0AAAAAAADoekozAAAAAAAAup7SDAAAAAAAgK6nNAMAAAAAAKDrKc0AAAAAAADoev8DfYS0pP1+l70AAAAASUVORK5CYII=;" vertex="1" parent="1">
                    <mxGeometry x="130" y="40" width="1741" height="584" as="geometry"/>
                </mxCell>
            </root>
        </mxGraphModel>
    </diagram>
</mxfile>